<svg xmlns="http://www.w3.org/2000/svg" xmlns:xlink="http://www.w3.org/1999/xlink" viewBox="0 0 878.66 948.51"><defs><style>.cls-1,.cls-15,.cls-6{fill:none;}.cls-2{clip-path:url(#clip-path);}.cls-3{fill:#ffefe1;}.cls-4{fill:#faf4ed;}.cls-5{fill:#fdfedb;}.cls-6{stroke:#fcc48b;stroke-width:0.75px;}.cls-15,.cls-6{stroke-miterlimit:10;}.cls-10,.cls-13,.cls-7{font-size:12px;}.cls-10,.cls-13,.cls-7,.cls-8{fill:#353535;font-family:LobsterTwo, Lobster Two;}.cls-8{font-size:18px;}.cls-9{letter-spacing:-0.17em;}.cls-10{letter-spacing:-0.03em;}.cls-11{letter-spacing:0em;}.cls-12{letter-spacing:-0.05em;}.cls-13{letter-spacing:-0.17em;}.cls-14{letter-spacing:0em;}.cls-15{stroke:#48b5ff;stroke-width:0.5px;}.cls-16{fill:#bad4c3;}</style><clipPath id="clip-path" transform="translate(-747.9 1.84)"><rect class="cls-1" width="1626" height="946.51"/></clipPath></defs><g id="Calque_2" data-name="Calque 2"><g id="Calque_8" data-name="Calque 8"><g class="cls-2"><path class="cls-3" d="M1626-1.49V459.94c-8.29-.46-4.16-3.76-15.44-4.43s-15.12,5.78-15.12,5.78c-15.77-1.11-4.88,1.11-20,1.11s-17.33,2.44-26.66,12.67-7.56,21.55-20,21.33-12-10.67-8.45-18,2.89-12.45-4-12.89-10.44-16.44-28.44-9.78-26.45,30.45-29.33,33.34-4,7.77-11.34,13.54-35.78,5.79-43.11-2-1.78-21.11-1.78-21.11l-2.22-7s-2.89,1.44-32,7-31.11,9.33-29.33-10.22-8.89-20.45-18-21.11-19.56,9.55-38.45,15.33-24-10.22-21.77-20.44-18.45-34.89-20.23-32-32,4.66-35.33,4.66-8.89,6.89-26.22,13.11-18.67-1.55-23.34-4-4.66-6.89-11.11-15.33c-3.48-4.56-3.46-6.4-3.12-7,.65-.26.24-.45,0,0l-.43.13c-2.67.67-2.67-1.78-8.22-12.67s-3.56-8.22-11.78-14.88-18-2.89-18-2.89-23.11-1.34-31.11.22-10.67,2.44-19.78,1.33-7.56-.44-12.22-2.89-8.67.45-14.67,1.78-9.78,15.78-10,21.33,2.83,9.67,2.33,11.34a62.09,62.09,0,0,0-1.22,11.78c.17,2.5,2.56,13.94,5.67,17s2.44,7.38,2.33,10.83-.11,11-.11,11-6.78-.45-7.22,3.67-1.89,4.05-2.95,5.5-9.22,5.61-9.83,7.16-6.22,1.61-5.44,7.56-2.23,4.89-4.34,5.11-3.66-1.78-4.94-2.67-3.28,1-6.22,1.61-3.23-.83-3.23-.83c-.22,2.33-1.05,5.17-5.89,8.67s-3.61-4.73-7.38,2.39-12.78,9.22-12.78,9.22c-17.89,2.11-16.45-1.11-16.67-6.11s-.22-5.23-3.44-5.67-9.89-.33-11.56-4.67-4.78-4.11-7.67-6.33-1.88-9.78-1.88-9.78C890.78,446.51,901,432,901,432s2.11,13.89,4.67,20.67,7.66,7.56,7.66,7.56c-.66-7.34,4.78-6.56,4.78-6.56s-2.44-.78-.22-4.55,3.44-7.78,6.22-11.89-.15-14.63,5.78-21.45-3.56-11,1.18-23.55,1.19-12.6,1.19-12.6c-3.56-23.26-31.7-36.59-34.67-37.92s-5.48-1.93-11.85-15.11-9.18-4-9-9.93-4.59-12-4.59-12c-6.22,3.26-3.41-7.11-8.89-.15s-4.89,1.34-7.41-1S855.22,298,854,298s-1.63-1.63-2.37-4.14-10.23-8.6-12.3-10.67-5-4-3.26-5.63-.44-2.67-.89-3.56-3-4.74-2.52-3.4-3.7,1.63-3.7,1.63,4.3-2.08-2.67-.26-.66-6.52-4.77-2-7.67-.44-7.78,1-.11.56-3.78,1a12.35,12.35,0,0,1-9.78-2.77c-2.78-2.34-2.22-7.56-5.33-10.34s-1.89-6.55-2.78-7.77-2.44-5.45-1.89-10.23-2.11-7.77-3-10-8.22-9.55-8.22-9.55,1.78-4.11-.44-5.56c-1.52-1-1.23-3-.89-4.18,0-.13.07-.24.11-.34a2.56,2.56,0,0,1,.09-.26c0-.13.08-.22.1-.27s0,0,0,.06a.15.15,0,0,0,0,.07c-.05.37.19,1,3.49-1.3,4.23-2.89,11.12,1,16.67.33s4.56,0,10.33,1.45,12.56-4,12.56-4,7.44-6.89,9-7.67,6.78-.44,6.78-.44,4.33-5.67,13.66-6.78,17.78,7.22,19.34,8.22,11.78-1.22,21.44-1.22,4.42-8.45,9-2.67,11.24,6.11,14.24,2.45,8.78-4.11,8.78-4.11,1.78-5.56,9.89-7,6.56-2.12,11.78-3.89,26.22,7.44,33.67,7.66,15.33-3.66,25.88-7.66,7.89-12.56,7.89-12.56-2.44-3.67-1.22-16.33,12-15,12-15,6.52-2.37,9.63-5,4.3-8.89,10.37-13.34,10.67-5.48,10.67-5.48l-2.52-1.63-6.07,4.3s-8.74,2.81-11.11,9-7.71,10.37-12.3,11.4-9.33,8.74-9.33,8.74l-3.85,6.67s-2.23,4.45-.45,7.56,1.93,11.85-1.48,17.18-14.52,5.48-14.52,5.48l3.4-6.94c-.26.4-4.39,6.86-7.55,8.72s-14.22,3.71-24.44-2.07S944,179,943.07,179.29s-2.07,3.55-5,5.33-5.63-2.07-12.15,1.48-8.45,7.85-9.56,5.41-13.55-3.78-16.44-2-7.56,1.78-8.45,1.78-4.22-5.78-8.66-.45S873,198,871.67,197.07s-11.56-6.67-21.34-7.12-19.33,6.89-23.55,7.78-9.78,9.11-13.34,10.67-4.44-.22-9.33-1.56-24.22,0-24.22,0-1.56-16.66-2.22-26.22-8-30.89-8-30.89,1.33-17.33,6-26.22,4,.67,2.89,3.33-.67,8.45-.67,8.45l-1.11,6,5.52-2.89-3.08,4.67,3.08,4.66v12.45s2-3.56,1.59,2.22,4.44,14.22,4.44,14.22l3.11-2,4.23,6,.89-5.55,1.11,6,2.44,2c3.56-6.67-1.33-20.89-3.55-23.34a26.32,26.32,0,0,1-3.78-5.78l-3.34-4.88s-2.66,5.33-2.44,2.66-2.67-12.89-2.67-12.89-.66-10.66-2.89-13.33,1.34-29.33,1.34-29.33S780.56,90,779,74.62,771,53.07,767.67,46s2.66-4.44,4.66-8.66S773.67,26,769,18.62s-5.78-20.11-5.78-20.11Z" transform="translate(-747.9 1.84)"/><path class="cls-3" d="M1626,496.31v450.2H825s4.67-14.78.89-30.33-2-19.78,5.33-22.89,8.89,5.33,2-34.22-7.33-19.34-17.33-38.89,10.89-12.89,10.22-29.34-12-24-12-24a30.46,30.46,0,0,0-6.89-19.77c0-24.23-8.66-16.23-8-23.34.65-6.9-5-11.28-5.31-11.54l3.76.88.44-2.67,4.89.22,2.22,1.11L803,716.4l1.33-1.78,1.11,3.78,1.12-1.78,2.88-2,3.56,2-1.56-5.11-4.44,2s9.78-13.78.22-23.78-4-8.22,1.34-20.44S801,649.07,801,649.07s15.33-12.23,8.89-23.34-14.22-3.11-14.22-3.11,3.77-11.78,12.22-18.67,5.55-21.55,7.55-35.55S820.78,552,853,539.29s38.67-.22,40.44-5.78,6.67-8.89,11.34-11.33a10.55,10.55,0,0,1,8.44-.89S913,510.4,922.33,508s6.45,8.45,19.34,6.23,6.66-4.67,20.66-4.89,23.56-9.78,23.56-9.78c6.44-12.67,13.78-12.22,15.33-15.33s2.78-11.95,15.56-17.56,11.33-13.78,11.33-13.78l5.56,1.56s.66-29.56,1.11-34.22,0-28.67,2.22-34.67,8.44-9.33,12.67-6.89,9.77,4.45,23.11,5.11a122.12,122.12,0,0,1,23.78,3.56l-3.12-2.22c16.67-10.45,14.45-2.67,24.45.66s12.22,19.56,12.22,19.56a25.41,25.41,0,0,1-2.89,8.66c-2.44,4.45-.22,16.67-.22,16.67l-5.56-1.11-1.33,2,2.22,3.56,3.78-.67s2.22,8.22,4.45,15.11,11.11,7.56,15.11,8.67,7.77,5.11,8.66,2,8.89-3.11,8.89-3.11c-.22-3.34,3.11-12.67,6-12.23s.22,3.56,20.22-3.33-7.11,4.89,8.67-1.11-.19-20.94,37.33-10.67,1.34,42.67,32.23,45.34,15.77-10.67,42.44-18.45,25.78,1.33,19.56,16.95,10,20.38,15.77,15.94S1399,477.73,1399,477.73s-5.78,8.89-6.22,13.78,12,23.33,30,22.89,28.44,14.44,40-6.45c11.33-20.48,20.31-20,20.65-20-.12,0-2.21-.22,5.35-15.44,7.78-15.67,16.89-9.22,24-5.89s3.55,14.22-.89,18.45a14,14,0,0,0-4.45,9.33l3.12-1.33-2.89,5.11s6.44-3.34,2,2.66-2,14.23-2,14.23l2.66-3.93.67-3.41,2.44,3.41.23-4.3,2.22,3.34,2.89-1.11-3.11-3.56h3.11l-4.67-5.78s7.78.45,12.89,2.45,8.22,1.11,15.78-4.45,11.78-.89,11.78-.89,7.55-2.44,6.88.45,6,5.33,6,5.33l.45,6.22s1.33-4.89,7.11.45,6.22-2.57,6.22-2.57,8.67,9.23,19.56-2.1,9.78-11.11,15.11-9.33,3.33,0,6.89,1.55C1625,497.83,1625.77,497,1626,496.31Z" transform="translate(-747.9 1.84)"/><path class="cls-4" d="M784.33,684.06s-2.66-1.89,0-1.55,4.23.22,5.67-.89,5.11-1.22,4.78,0-3.89,3.22-3.45,5.22,3.47,5.33,3.47,5.33a10.51,10.51,0,0,1-5.36-3.77A14.94,14.94,0,0,0,784.33,684.06Z" transform="translate(-747.9 1.84)"/><path class="cls-5" d="M1141.21,402.49c.24-.45.65-.26,0,0Z" transform="translate(-747.9 1.84)"/><path class="cls-5" d="M1626,496.31V459.94h.11v35.56A2.25,2.25,0,0,1,1626,496.31Z" transform="translate(-747.9 1.84)"/><polygon class="cls-5" points="231.54 503.34 234.48 501.62 233.26 503.68 231.54 503.34"/><path class="cls-5" d="M882.19,195.73s2.59-4,5.4-3,0,2,0,2-.15,1,.15,1-1.26.89-1.63.89h-3.63Z" transform="translate(-747.9 1.84)"/><polygon class="cls-5" points="143.09 196.42 140.94 198.01 143.09 198.01 145.84 196.42 143.09 196.42"/><polygon class="cls-5" points="153.02 194.38 156.87 192.23 162.72 195.12 153.02 194.38"/><polygon class="cls-5" points="161.21 192.68 164.28 194.79 164.95 194.38 161.21 192.68"/><path class="cls-5" d="M908.11,195.38l6-.8s-2,3.48-3.41,3.15S908.11,195.38,908.11,195.38Z" transform="translate(-747.9 1.84)"/><polygon class="cls-5" points="156.84 197.53 159.09 197.21 158.21 198.79 156.84 197.53"/><polygon class="cls-5" points="158.21 200.49 161.21 199.75 159.09 201.6 158.21 200.49"/><polygon class="cls-5" points="161.21 201.82 163.61 199.75 165.28 200.79 163.24 202.12 161.21 201.82"/><path class="cls-5" d="M966.61,499.73c-.38.09,2.22-5.28,4.83-5.56a23.71,23.71,0,0,0,5.5-1.44A44.75,44.75,0,0,0,980,487.9c.17-.73,1.61-1.95,3.44-2.06s2.39-2,3.67-1.5,1,2.33,2.56,2.17,4.94-1.06,1.94,1.61-5.72,5.44-6.61,7.72-.94,2.22-3.72,2.67-3.34,2.94-5.06,3S970.61,498.78,966.61,499.73Z" transform="translate(-747.9 1.84)"/><path class="cls-5" d="M948.67,508.67a12.42,12.42,0,0,1,3.11-1.44c.83-.06,1.5,1.67-.22,2.17A3,3,0,0,1,948.67,508.67Z" transform="translate(-747.9 1.84)"/><path class="cls-5" d="M923.61,490.9c-.05.16.22,8.5.22,8.5s1.23-5.67.89-7.17S923.61,490.9,923.61,490.9Z" transform="translate(-747.9 1.84)"/><polygon class="cls-5" points="163.48 484.9 161.09 491.45 165.04 485.79 163.48 484.9"/><path class="cls-5" d="M1544.11,490.17c-.77-.23,8.22-6.89,9.56-11.33s14.22-11.78,21.33-10,10,1.5,2,7.86-10.3,10.14-14,11.92S1555.22,493.51,1544.11,490.17Z" transform="translate(-747.9 1.84)"/><path class="cls-5" d="M1567,489.06a13.19,13.19,0,0,0,9.33-5.33c3.78-5.11,13.34-8.45,27.11-9.33s21.34,0,21.34,0v14.66s7.55,2.51-8.45,1.7-23.11,4.52-23.11,4.52-5.11,4.45-13.78,0S1567,489.06,1567,489.06Z" transform="translate(-747.9 1.84)"/><polygon class="cls-5" points="36.5 684.08 35.91 682.16 40.06 684.08 44.95 681.12 47.61 682.6 43.47 686.45 45.84 691.34 42.73 691.34 39.17 686.23 36.5 684.08"/><path class="cls-5" d="M766.19,601.36s-7-5.63-7.26-11,5.77,1.48,7.4,5A6,6,0,0,1,766.19,601.36Z" transform="translate(-747.9 1.84)"/><path class="cls-5" d="M756,585.36s-2.81-3.41.15-2.82S756,585.36,756,585.36Z" transform="translate(-747.9 1.84)"/><path class="cls-5" d="M1141.21,402.49c.24-.45.65-.26,0,0Z" transform="translate(-747.9 1.84)"/><path class="cls-6" d="M778.9,73.73s4.32-6.3,4.91-9-5.35-10.08-3.34-15.71.69-19.7.91-24-6.75-26.55-6.75-26.55" transform="translate(-747.9 1.84)"/><path class="cls-6" d="M796.56,159.73a31.44,31.44,0,0,0-4.6-11.54c-3.55-5.05-3-11.1-5.63-13.05s-3.31-5.69-3.31-5.69" transform="translate(-747.9 1.84)"/><path class="cls-6" d="M800.11,183.07s-4.89,6.73-1.63,9.47,8.58,3.32,16.59,4.81" transform="translate(-747.9 1.84)"/><path class="cls-6" d="M839.93,191.9a24.92,24.92,0,0,1,.39-5.35c.52-2.78,1.72-5.78,4.38-6.67a107,107,0,0,0,11.81-5" transform="translate(-747.9 1.84)"/><path class="cls-6" d="M856.51,180.77s-.84-1.78-6.47,1.48a42.57,42.57,0,0,1-9.72,4.3" transform="translate(-747.9 1.84)"/><path class="cls-6" d="M1021.74,139.58s-.15-5.63-1.93-6.81-8.29-.42-6.51-3.32a8.16,8.16,0,0,0,1.18-5.57,6,6,0,0,1-1.49-2.67c-.29-1.48,2.08-4.74,2.08-4.74s-3-3.56-.29-4.45,8.59-2.66,8.59-4.14a33.48,33.48,0,0,1,0-5.51,12.11,12.11,0,0,0,0-3.68s3.56-2.67,2.07-4.15.73-3.85.37-5.92-4.51-3-5.11-3.85,4.07-4.15,5.15-3.86-4.55-3.26-1.59-5.92,5-6.52,6.22-8.3-.59-12.15,0-13.33a42.51,42.51,0,0,1,8.3-10.37c5-4.74-1.78-8.89-1.78-8.89s3.85.89,5.33-1.78,2.37-13.92,4.45-15.7a25.52,25.52,0,0,0,3.55-3.81s-6.22-4.49-3-6.56,6.52-3.93,6.82-7.74" transform="translate(-747.9 1.84)"/><path class="cls-6" d="M1052.41,115.61s15.4.27,23.4-3.29,21.74-12.94,32.06-18.62,15.94-7.75,18.91-12.49,8.59-20.44,17.78-21.63S1162.93,59,1165,46.84s-.89-20.44,8.3-24.89,13-8.59,12.74-13.33,11.85-10.11,11.85-10.11" transform="translate(-747.9 1.84)"/><path class="cls-6" d="M1354-1.49s-58.67,44.77-62.52,43.29-8.59-3-19,1.78-13,5.63-16.6,9.78-3.55,0-3.55,0l-3.26,3.7-4.45-1.33s-8,2.07-8.59,3.55.89,5.63-1.48,7.41-3.26,7.11-3.26,7.11a42.81,42.81,0,0,1-1.48,12.45c-1.78,5.92-6.22,11.85-6.22,11.85s-4.15,1.78-7.41,9.48-6.22,15.11-12.74,23.11S1186.63,160,1186.63,160a16.93,16.93,0,0,1-11.26,6.52c-7.41.89-10.07,4.15-10.07,4.15s-3.56,1.48-11,3.85-7.7,3.86-12.44,7.41-15.41,8.3-15.41,8.3-.29,11.85-9.48,18.66-4.74,8.6-9.19,13.34-25.77,23.4-25.77,23.4L1069.3,248s-4.14-4.14-7.55-4.14-6.08-3.26-8.75,0-30.22,18.46-35.85,25.38-11.56,14-10.67,14-18.67,19.86-18.67,19.86-1.18,13-5,15.7-12.45,5-12.45,5-14.81-1.48-16.59,0a71.73,71.73,0,0,1-6.22,4.14l-2.67-3.55-3.55.89s-21.93-3.26-24.6-4.45-15-13.92-17-13.92-13.12,2.66-14.23,2.37-6.14-8.59-6.14-8.59-3.56-12.75-5-14.23S859.14,272,856.51,271.43" transform="translate(-747.9 1.84)"/><path class="cls-6" d="M840.7,271.88c.45.59,3.56,5.48,3.56,5.48l7.26-.59" transform="translate(-747.9 1.84)"/><path class="cls-6" d="M849.74,274.62s9.33-2.45,10.07-2.15" transform="translate(-747.9 1.84)"/><line class="cls-6" x1="111.91" y1="270.97" x2="111.91" y2="281.57"/><line class="cls-6" x1="130.28" y1="283.94" x2="122.23" y2="284.4"/><path class="cls-6" d="M926.19,270l-1.34,1.93s-8.44-.6-9.92-1-9.15-11.63-9.15-11.63l-6.11-3.4s-38.37-13-39.86-13.63l2.08-4-2.82,4.15-7.55,2.51-10.82,9.34-9.18,3.85,1.63,1.18,5.92-2.22-1.1-4.45h2.35L842,258" transform="translate(-747.9 1.84)"/><path class="cls-6" d="M822.63,206.89s-1.63,5.28-1,8.54.46,23.56.46,23.56l3.39,2.81h6.08l4.59-6.07" transform="translate(-747.9 1.84)"/><polyline class="cls-6" points="70.13 249.86 70.13 252.53 73.56 254.45"/><polyline class="cls-6" points="74.14 240.82 74.14 246.31 76.8 252.16"/><polyline class="cls-6" points="83.61 252.16 82.87 248.53 84.38 242.62"/><path class="cls-6" d="M822.05,243.84l8.73,2.85,5.33.37.67,2.34s11.78-10.23,14.11-13.45,5.69-10.44,6.73-11.33,26.6-11.17,26.6-11.17" transform="translate(-747.9 1.84)"/><polygon class="cls-6" points="85.98 255.9 88.87 251.23 90.07 254.45 85.98 255.9"/><path class="cls-6" d="M906.53,312.2l5.25-1.8,7.22-7.28,2.33-5.34h4.95l4.5-1.88a32.5,32.5,0,0,1,2.5,5.05,19.35,19.35,0,0,0,1.89,3.89" transform="translate(-747.9 1.84)"/><path class="cls-6" d="M1329.74,17.12s9.19,11.05,10.07,12.24a73.63,73.63,0,0,0,5.93,5.33l2.37,7.11,15.7,15.26,8,23,15.12,18.08L1412.11,128l45.33,53.34,1.52,13,6.48,16.29,11,5.33,24.89,16.89,14.51,9.78,8.32,3.85,9.46,7.71,10.08-3,15.4,1.33,11.86,4.6,16.88,3,8.6,3.85,7.7,15.41-9.48,22.82-5.93,8.29-11,10.08-4.09,7.4-15.11,8.3-19.26,18.08.3,30.81-2.37,9.48v7.41l-7.78,2.67s-2.44,5.92,0,8l-3.18,10.07s1.52,2.67,0,4.15-2.31,8.81-2.31,8.81l-1.7,2.74" transform="translate(-747.9 1.84)"/><path class="cls-6" d="M1523.89,435.8l5.48,1.41,3.85.3,3.63,2.74,1.33,2.37h6.89s6.6,6.07,11.41,6.07,13.78-.52,13.78-.52,7.33-5.26,11.18-5.77,14.75-4.08,15-3.86,6.29,1.19,8.74,2.52,4.44.67,7.18,1.56,5.34,2.15,7.71,1.7a42.19,42.19,0,0,1,6.07-.44" transform="translate(-747.9 1.84)"/><path class="cls-6" d="M970.33,323.88l4.45,12.74L972.56,356l10.66,34-4.89,11.33s-5.77,2.28-5.77,7.14-.45,21.09-.45,21.09-1.55,5.06,2,5.2,10,.53,10.89,0a10.11,10.11,0,0,1,6.89-.67c3.11.8,8.89,8.36,8.89,8.36a33.4,33.4,0,0,0,9.11,3.92c4.89,1.19,4.22.15,6.44,0a61.54,61.54,0,0,1,7.73.56" transform="translate(-747.9 1.84)"/><path class="cls-6" d="M974.78,336.62l11.33,5.11.89,2.59,5.11-2.37,3.11,2.37,4.13,2.3,2.76,1.55h3.56l2.79,2h3.87l4.23,1.34,1.11,2.22,4.89-1.11h4.66l2.89,5.33s1.52,2.48,4,1.91,5.18-.95,5.18-.95" transform="translate(-747.9 1.84)"/><path class="cls-6" d="M1168.47,431.18s-11.14-7.37-15.53-12.81-7.94-20.86-7.94-20.86l-3.79-15.11s-6.88-11.12-12.65-10.67-18.67-.61-18.67-.61" transform="translate(-747.9 1.84)"/><path class="cls-6" d="M1505.89,496.31s2.22,8.75,0,15.86-2.67,18.2-2.67,18.2l1.83,8.47,4.39,11.11,1.78,12.45,8.45,10.66,9.7,5.78s12.87,34.67,14.69,36,4.5,24.89,4.5,28-1.78,12,.44,19.32,7.56,15.79,7.56,15.79" transform="translate(-747.9 1.84)"/><path class="cls-6" d="M1577,683.28s3,8.89,4.81,11.12,1.41,3.55,2.3,8.88,11.12,13.78,12.67,22.23,10.89,25.33,11.33,34.22,8,16,2.22,35.55-6.66,33.34-6.66,33.34l8.83,2.22V846.4l8.5,8.88,5,4.89" transform="translate(-747.9 1.84)"/><polyline class="cls-6" points="855.76 830.45 845.1 832.68 836.65 838.45 829.09 842.9 815.32 842.9 808.65 845.57 804.21 855.34 795.32 862.01 768.65 922.01 781.98 948.34"/><text class="cls-7" transform="translate(127.35 215.29)">Miary</text><text class="cls-7" transform="translate(25.7 207.23)">Belalanda</text><text class="cls-8" transform="translate(61.32 270.97)"><tspan class="cls-9">T</tspan><tspan x="8.96" y="0">oliaria</tspan></text><text class="cls-7" transform="translate(251.44 150.03)">Behompy</text><text class="cls-7" transform="translate(331.88 104.2)">Ampanihy</text><text class="cls-7" transform="translate(0 14.65)">Mangily</text><text class="cls-7" transform="translate(541.77 25.52)">Andranovory</text><text class="cls-10" transform="translate(699.23 230.07)">V<tspan class="cls-11" x="7.33" y="0">atolatsaka</tspan></text><text class="cls-7" transform="translate(806.09 295.51)">Inanavy</text><text class="cls-7" transform="translate(737.12 346.16)"><tspan class="cls-12">F</tspan><tspan x="6.05" y="0">enoanivo </tspan></text><text class="cls-7" transform="translate(758.86 449.27)">Iotry</text><text class="cls-13" transform="translate(711.06 487.15)">T<tspan class="cls-11" x="6" y="0">ameantsoa</tspan></text><text class="cls-7" transform="translate(673.33 532.2)">Anaralava</text><text class="cls-7" transform="translate(569.12 481.94)">Ifanato</text><text class="cls-7" transform="translate(363.52 472.92)">Manorofify</text><text class="cls-13" transform="translate(364.2 418.05)">T<tspan class="cls-14" x="6" y="0">anandava</tspan></text><text class="cls-7" transform="translate(260.78 370.6)">Ambohimahavelona </text><text class="cls-8" transform="translate(35.91 614.93)">Anakao</text><text class="cls-7" transform="translate(53.59 747.2)">Andranotohoka</text><text class="cls-7" transform="translate(53.36 810.72)">Befaso</text><text class="cls-7" transform="translate(61.32 901.87)">Beheloka</text><text class="cls-7" transform="translate(800.38 685.12)">Betioka</text><text class="cls-8" transform="translate(155.55 477.51)">St Augustin</text><polyline class="cls-15" points="654.42 481.34 658.28 481.34 660.36 476.53 662.28 471.49 667.91 462.45 669.39 456.97 671.61 454.01 672.65 451.72 673.84 450.53 678.28 449.27"/><path class="cls-15" d="M1493.74,452.91l2.22-4.22.6-3,3.55-2.81,1.63-3.81v-6.26l1.33-7.12s3-3.55,2.67-5.48-3.26-3-4.3-4-2.37-11.59-2.37-11.59,0-4.15-1.92-6.52a26.15,26.15,0,0,0-4.74-4.3l-1.78-2.81-3.41-.74-3.85-4.6h-4.3a16.9,16.9,0,0,1-2.66-1l-1.34-1.34h-1.92v-4.14l2.07-2.37-1.48-2.67v-.89l-1.48-.74L1470,370s-1.78-.44-2.23,0-1.92-1.19-1.92-1.19l-2.52-2.36.74-3.12-3-3.55s-2.74-2.67-2.19-3,1.15-3.12,1.15-3.12l-1.15-3.11,2.19-2.81-2.19-4.45" transform="translate(-747.9 1.84)"/><path class="cls-15" d="M1532.7,156.62v2.81s.89.59,0,1.63-1,4.3.4,5.63-3.66,1.19-3.51,3,2.07,2.67,0,5.49a21.59,21.59,0,0,0-3,5.63l-.89,2.81-1.61,3.56-.76,3.4-2.81,2.37a55.54,55.54,0,0,0-2.6,5.93c-.44,1.63,1.85,8,1.56,9.78s-3.11.29-1.93,3.11,1.19,3.11.6,4.44.59,4.15.59,4.15,5.33,8.15,6.81,9.48,2.56,2.22,3,3.26,3.75,2.67,3.75,2.67" transform="translate(-747.9 1.84)"/><path class="cls-15" d="M1546.48,185.51h5.33s1.78-2.67,2.23-2.67h7.26s4-2.67,4.74-1.78,3.11.89,3.85.74.15,2.37,2.22,2.08,4.74-.45,4.89-1.34,0,.38,2.67-.77a6.87,6.87,0,0,0,3.55-3.52s4,2.37,4.74,1.33,3.71-1.33,3.71-1.33,8.14-.89,8.44-1.34a30.39,30.39,0,0,1,5.33-4.14c2.23-1.34,5.49,1.48,6.37-2.37s8-3.86,8-3.86l6.19-1.63" transform="translate(-747.9 1.84)"/><path class="cls-15" d="M1499.07,404.62a29.54,29.54,0,0,0,.89-10.45c-.52-6,4.34-9.11,5.8-11.77s.13-19.34-1-21.56-3.19-5.56-2-8,6-17.11,7.15-21.56,3.55-5.11,5.33-8.88,1.5-18,2.08-22.45-3.86-5.55-2.52-8S1527,282,1527,277.28s1.84-18,4.59-24.67c2.73-2.22-1.55-6.51-2.72-8.14s1.46-3.7,2.8-5.63.29-4.44.29-6.37-3.85-4.45-3-6.07,7-4.89,7-4.89-.29-9.34,1.34-9.34,6.07-3.85,7.13-4.59.87-4.89.13-9,1.92-13,1.92-13a16.71,16.71,0,0,1-.59-8.6c1-4.14,5-2.51,4.59-3.26s1.48-7,3.26-10.51-.3-11.12-.61-13.34,1.2-4.89.31-7.4.15-6.67,2.37-10.82.75-9.18.75-9.18,6.37-1,6.07-5-2.52-7.11,1.33-8.89,4.3-2.07,3.41-6.1,2.52-4.72,3.85-5.9-3.11-4-1.18-8.15,4.89-3.7,7-3.7,3.26-3.41,3.41-6.08,1.78-1.77.44-6.07,2.82-16,2.82-16a25.28,25.28,0,0,0,3.11-9.19c.44-4.74-7.85-12.74-7.85-12.74l2.64-3.55s1.65-10.37,0-11.26-4.15-6.37-3.7-11.41S1585.3,0,1585.3,0" transform="translate(-747.9 1.84)"/><path class="cls-15" d="M1407.76,510.27s-2.61,4.87-1.57,6.5-2.67,4.69-2.67,4.69l-1.93,4.79" transform="translate(-747.9 1.84)"/><path class="cls-15" d="M1417.87,514.05a2.57,2.57,0,0,0,1.65,3.6c2.81.89,3.26,1.64,1.48,6.15a32.4,32.4,0,0,1-3.37,6.69s-4.48.65-4.33,2.42-3.71,3.56-3.71,3.56,2.37,2.67,1.48,4.44-4.8,3.26-6.4,2.67-4.41,2.22-5.89,2.67" transform="translate(-747.9 1.84)"/><path class="cls-15" d="M1408.56,549.36a9.77,9.77,0,0,0,1.86-3.11c.51-1.63-.93-3.79-.93-3.79" transform="translate(-747.9 1.84)"/><path class="cls-15" d="M1418.9,528.38s.48,3.79,2.1,5,4.3,1,4.3,2.07-.45,6.05,1.48,7,3.26,1.71,3.55,3.79,4.15,2.66,3,4.59-5,4-5,5.18.89,5.63,2.67,5.34,3-2.34,4.44,0,4.44,2.06,3.41,4-4.3,5.48-2.82,5.63,1.93-2.37,4.6-1.34,7,6.08,7.55,9.78,1.19,7.7,1.19,7.7a8.11,8.11,0,0,0,1.63,2.38c.88.74,2.37,1,2.51,2.66s1,2.52,1.49,3.71.29,2.37-2.08,2.22-3.11-1.19-4.74,1.48-2.37,3.85-2.37,3.85" transform="translate(-747.9 1.84)"/><path class="cls-15" d="M1460.93,511s6.88-.16,10.44,1.17,7.26,3,8.89,4.6,4.93,1.33,4.76,3.4,1.65,5,0,8.21-4,3-3.43,6.46,1.19,5.93.45,8.3-1.19,4.44-.3,5.48a13.69,13.69,0,0,1,2.52,5.33c.3,1.78,2.56,2.82.76,5s-3.43,4.15-5.35,5.18-7.56,5-7.56,5-3.41,6.07-3.41,7.26a61.1,61.1,0,0,0,0,7.41c.3,3,2.37,10.81,1.49,13.63s-.3,6.51-2.08,8.59-5,3.41-5.48,4.59.44,4,1.48,4.45,4.59,5,3,7.85-1.48,6.07-1.63,9.48-2.07,2.81-2.07,2.81l1.78,2.82-1.34,1.92.3,2.38-1.63.74-.44,2.66h2.66l3.26,3.56,1.63,5,2.82,1.92v3.85l1.78,3.41-.15,1.93,2.07,2.07,1.78,2.52" transform="translate(-747.9 1.84)"/><polyline class="cls-15" points="715.32 547.74 714.43 544.29 711.11 541.57 706.21 539.57 702.65 534.9 700.65 533.34 696.21 524.68 696.69 520.56"/><path class="cls-15" d="M1542.78,527.58l-2.59-.89-2-1.85s-.75-1.48-1.71-1-1.92,1-2.44.89-1.41-1.2-1.78-1a12.43,12.43,0,0,0-1.41,1.91c-.29.39-1.92.32-2.15.62s-1.4,1.33-1.4,1.33l-.82-2a10,10,0,0,0-3,1.51c-.67.74-2.67,2.66-2.89,2.88a16.32,16.32,0,0,1-2.3,1h-2.14l-1,2.59-2.89-.37-4.74,1-3.26.93-5.63.55-4.89-.45-5.33.89s-4.93-3.14-5.78-3.4-.75-.45-.75-.45" transform="translate(-747.9 1.84)"/><path class="cls-15" d="M1481.27,546.5a15.65,15.65,0,0,0,2.06-.94c.11-.16,1.94-.44,2.39-1.11s1.28-1.67,1.28-1.67,1.33.56,1.5,1.56,1,1.89,1.06,2.94a26.29,26.29,0,0,1-.23,3.23s1.11,2.72,1.34,3.22a33.87,33.87,0,0,1,.66,4.17c0,.22.84,3.33.84,3.77s-.84,2.67-1.17,3.84a4.35,4.35,0,0,0,.28,3.16c.39.45,1,1.89.55,2.45s-1.16.61-.33,1.83a19.12,19.12,0,0,1,1.83,4.33c.56,1.56.06,3.67-.5,4.06" transform="translate(-747.9 1.84)"/><path class="cls-15" d="M1494.49,535.35s-.32,2.71.84,3.1,2,.22,1.89,2.06-.61,4,0,4.11,2.06.72,2.61.28,1.67-1.34,2-1.06a6.65,6.65,0,0,1,.89,2.33c0,.28-.33,1.67,0,2.28s.06,1.78.5,2.45,1.39,1.16,1.28,2.27a4.56,4.56,0,0,0,.33,2.73,2.4,2.4,0,0,1,.11,2.38c-.38,1.06-.66,3.17,0,3.39a11.8,11.8,0,0,1,2.67.84,8.08,8.08,0,0,0,2.33.72,1.91,1.91,0,0,1,2,1c.5,1.22.34,3.67.89,4s.89,1.17,0,1.67-1.23,2.06-.5,2.45,1.11,3.33.78,4.22.32,3.66.27,3.89-.22,1.94,0,2.11a3,3,0,0,1,0,2.22c-.32.39-.11,1.61,0,2.06a7.68,7.68,0,0,1-.44,2.94,11.58,11.58,0,0,0-.5,2.33" transform="translate(-747.9 1.84)"/><path class="cls-15" d="M1624.26,670.1a9.14,9.14,0,0,1-3.7-2.08c-1.78-1.62-3.41-4-4.45-4.44s-2.52,1.3-3.7-1.42a28,28,0,0,0-3.71-5.69s-1.33-4.3-1.77-4.45a7.75,7.75,0,0,1-2.67-.74c-.89-.59-2.07-3.55-2.07-3.55l-.69-3.11s.5-2.37,0-2.82a32,32,0,0,1-2.28-3.7,1.65,1.65,0,0,0-.73-1.63c-.9-.45-1.34-2.37-1.34-3.11a7.28,7.28,0,0,0-1-2.37l-3.7-2.08-3-3.7-.74-2.07s-2.51-2.37-2.81-2.82-1.93-1.92-1.93-2.52v-2.22s-3.4-.74-3.4-1.63v-3.7s-1.78-.74-2.08-1.63a26.08,26.08,0,0,1-.89-3.56c-.15-1-.15-.44-2.52-1.63s-1.77-.29-2.81-2.37-3.56-3.11-2.82-3.85-3.11-1-3.55-1.93,1,.3-.74-1.77-2.67-2.82-3.26-2.23.74,1.63-1.63,1.78-1.19,1.93-3-.29-.6-.59-2.23-2.23-2.66-.59-3.4-2.37a17.29,17.29,0,0,0-1.19-2.37l-1.33-2.66s-.59-1.34-1.34-2.67l-.74-1.33a10.41,10.41,0,0,0-4.29-.89c-2.52,0-5.63-2.52-5.63-2.52l-1.93,1.18s-.89,0-.89-.44v-3l-2.07-.74h-2.37s-1.93.14-1.63-2.37.68-3.36,0-4.49-1-2.26-1.45-2.15,0-2.4,0-2.4l-1.19-2.67a10.3,10.3,0,0,0-2.22,0c-.74.15-4.3,1.63-4.3,1.63s-.88-.44-1.63-.74-2.07-1-2.07-1l-3,1.39" transform="translate(-747.9 1.84)"/><path class="cls-15" d="M1534.19,607c-1-1.34-.3-4.59,0-5.63s-.54-5-.54-5l-1.09-4.15.13-4.51,1.56-1.26,2,1.48,1.63,2.66s.59,1.19.74,1.63" transform="translate(-747.9 1.84)"/><path class="cls-15" d="M1529,572.56a3.91,3.91,0,0,0,.87,4.8,9.32,9.32,0,0,1,2.67,5h-1.86l3.55,4" transform="translate(-747.9 1.84)"/><path class="cls-15" d="M1465.42,616.37a37.16,37.16,0,0,1,4.69,1.8c1.11.67,3.22,1.78,3.22,1.78h3v3.11s2.23,2.89,3.11,2.89a31.94,31.94,0,0,1,4.45,1.11l1.13,2.45,2.4,1.11h3.14v8.44s.66,3.11,0,3.78,0,2.44,1.33,2.67,5.11,1.33,5.11,1.33v1.78l1.11,4.44,3.33,1.78v4.67H1504l5.87-2.67h2.44s-2.23,1.56,0,1.78,4.67,2.44,4.67,2.44l4.89,1.1h1.55s0-.46,1.56,0,4.8,0,6.4,0,1.88.65,2.85,0,4.38,0,4.38,0v1.57a5,5,0,0,1,0,2.22c-.3.89-1.85,2.22-1,2.45s-.23,2.88-.23,2.88l1.32.89-2,3.34h1.85v3.33h1.48l-1.48,2.44,3,2h1.11v4.45l2.66.44a6.74,6.74,0,0,1,1.12,2.23c0,.66,2.41,1.55,2.41,1.55l-1.53,3.78v1.11l3.56,1.78,1.11,2.66a4.36,4.36,0,0,1,3.56,2.45c1.33,2.44,2,1.11,2.66,3.11a7,7,0,0,1,0,4,7,7,0,0,0,2.89,2.44v2.89c1.78.67,2.45,3.78,2.45,3.78v3.33l1.11,3.12-1.11,4.44,1.11,1.33-3.11,4,3.11.89s-3.34,4.22-1.78,4.67,5.29,3.63,5.29,3.63h10.49a13.57,13.57,0,0,0,3.55,0c.89-.3,4.45,1,4.45,1l3.11,3.11s0,2.89,1.33,2.66,5.34,1.78,5.34,1.78.08-.44,1.93-.44a4.14,4.14,0,0,1,3,1.55" transform="translate(-747.9 1.84)"/><path class="cls-15" d="M1558.33,838.84c-1.11-.22-4.66-.22-3.77-1.33a25.38,25.38,0,0,0,2-3.34l-.19-4.22s-1.81-.89-2.93-1.33-4.07-1.34-4.47-2-2-4.22-2-4.22l2-1.56-2-5.56v-2.66l2.89-3.73.67-3.61-.23-7.33-5.11-1.55,1.78-2.89,2-6-3.75-.23-6.89-4-.44-5.33-3.33-1.11v-3.33h-3.34l-4.89-1.78-1.33-1.11-2-1.56-4.44-.22-2-.67-.89-2-3.34-.89-6.66-1.77-3.56-3.56-1.11-2.22-4.89-1.78-2.67-2.22s-1.33,0,0-1.33.23-7,.23-7l1.77-5.41,2-5.11-1.11-3.11.23-3.56.44-3.55s-3.56-.89-1.11-2a3.32,3.32,0,0,0,1.78-3.78s-3.11,1.78-2.67,0a23.38,23.38,0,0,1,1.56-4s.44-3.56,1.77-5.33l1.34-1.78.89-4.22.88-2.45-1.11-2.66a5.89,5.89,0,0,1,2.89-.89h2.45l-2.45-3.56-2-2,2-4.89v-4.89l4.67-5.77-1.12-4.45-3.55-3.33,2.22-2.45-4-4v-2.65" transform="translate(-747.9 1.84)"/><path class="cls-15" d="M1548.28,771.73c-.28.22-8.06,0-8.06,0l-2.11-1.67-3-2.89-3-2.22-6.52-.44-3.7.66-2.45-.66-4.5,1.47" transform="translate(-747.9 1.84)"/><path class="cls-15" d="M1584.56,448.69c-.15-.52-2.75-5.08-2.75-5.08l-2.14-7.14-.6-7.7" transform="translate(-747.9 1.84)"/><path class="cls-15" d="M1590.63,426c0-.74.3-3.55,1-4.44s-1-4.45-1-4.45l-2.82-3.41,1-.74L1589,411l-2.2-1.48s-.73-3,0-4.15,0-4,0-4" transform="translate(-747.9 1.84)"/><path class="cls-15" d="M1607.81,407.28l.75,4.3.88,4.63-.81,1.44a17.2,17.2,0,0,0,1.7,3.12c.45.29-2.07,5.18-2.07,5.18s-.45,3-.45,3.41a36.76,36.76,0,0,0,2.58,4.29l3,4.15-1.11,4.82" transform="translate(-747.9 1.84)"/><path class="cls-15" d="M1562.82,463.71l1-2.2s2.38-2.37,3.19-2.23,3.19.66,3.19.66l4.81-3.17,2.89,1.77" transform="translate(-747.9 1.84)"/><path class="cls-15" d="M1556.41,358.84c-.3.44-1.63,2.37-2.22,3.26s-4.45,1.48-4.45,1.48v3.7l-3-.74v3.56l-.59,2.07-3.26-.74a17.18,17.18,0,0,0,0,3.85c.29.89,1.48,2.39.59,2.53s-4,2.37-4,3.11-.78,7.57-.78,7.57l-1.55-3.72-1.78,6.22-2.67,1.33-.59,5.19-5,2.37-3.18,3.26,8.67-1.78,3.85-5.78,3.74-2.67,4.85.6,4.44-3.26" transform="translate(-747.9 1.84)"/><path class="cls-16" d="M1394.33,418.69c-.59.3-3.85.45-2.66,5s-1.93,1.92-1.19,3.7,5,3.41,5,3.41,4,2.81,1.48,3.41,2.67-2.37,4.3-2.37,10.07,3.4,12-.89,2.22-1.93-2.37-7.71-4.74-6.14-1.63-7.07,8.29,1,9.92-1.22,5.78-.3,6.37,0,1.48-3.11-1.63-5.63-7.7,1-7.7,1l-4.89-2.67-3.1,2.22s-2.83,1.48-3.27,1.33.3-1,1.93-3.55-1.49-5.33-2.23-3.11a29.15,29.15,0,0,0-1.63,7.4c0,1.93-2.66.89-3.26-.74s.3-4,1.34-6.51-6.22-.3-6.22-.3-4.83-3.11-4.56.3,3.07,5.63,2.93,7.85-3.26,3-1.93,3.59A11,11,0,0,1,1394.33,418.69Z" transform="translate(-747.9 1.84)"/></g></g></g></svg>