<svg xmlns="http://www.w3.org/2000/svg" viewBox="0 0 1626.62 948.97"><defs><style>.cls-1,.cls-5{fill:none;}.cls-1{stroke:#bad4c3;stroke-linecap:round;stroke-linejoin:round;}.cls-2{fill:#ffefe1;}.cls-3{fill:#faf4ed;}.cls-4{fill:#fdfedb;}.cls-5{stroke:#fcc48b;stroke-miterlimit:10;stroke-width:0.75px;}.cls-6,.cls-9{font-size:12px;}.cls-6,.cls-7,.cls-9{fill:#353535;font-family:LobsterTwo, Lobster Two;}.cls-7{font-size:18px;}.cls-8{letter-spacing:-0.17em;}.cls-9{letter-spacing:-0.17em;}.cls-10{letter-spacing:0em;}</style></defs><g id="Calque_2" data-name="Calque 2"><g id="eau"><polyline class="cls-1" points="1192.13 895.04 1197.99 891.66 1195.71 894.19 1197.56 893.13"/><polyline class="cls-1" points="1170.12 716.7 1172.43 715.36 1172.12 717.81 1173.02 717.29"/><polyline class="cls-1" points="1164.86 716.76 1167.61 715.17 1165.37 718.49 1172.18 714.55 1165.82 720.04 1166.18 719.83"/><polyline class="cls-1" points="1158.99 712.37 1171.58 705.11 1161.87 712.49 1171.16 707.13 1164.55 713.1 1170.32 709.77 1165.22 714.63 1169.21 712.33 1164.25 716.72 1168 714.55"/><polyline class="cls-1" points="1154.72 714.2 1171.68 704.41 1156.6 714.65 1158.33 713.65"/><polyline class="cls-1" points="1266.87 523.39 1274.18 519.17 1270.22 522.74 1273.87 520.63 1273.15 523.05 1273.64 522.76"/><polyline class="cls-1" points="1388.89 454.86 1394.19 451.81 1391.45 455.58 1394.14 454.03 1393.69 456.21 1394.09 455.98"/><polyline class="cls-1" points="1517.94 459.77 1523.92 456.32 1522.59 459.04 1523.63 458.44"/><polyline class="cls-1" points="1572.63 428.64 1596.94 414.61 1576.43 428.15 1602.29 413.22 1579.27 428.27 1603.64 414.2 1582.06 428.59 1604.95 415.37 1584.94 429.07 1606.31 416.73 1587 429.48 1607.27 417.78 1589.45 430.02 1608.41 419.08 1591.25 430.45 1609.24 420.07 1593.96 431.14 1610.47 421.61 1595.69 431.61 1611.25 422.62 1597.85 432.24 1612.23 423.94 1599.32 432.74 1612.9 424.89 1600.69 433.25 1613.55 425.82 1602.56 434.05 1614.46 427.18 1604.3 434.92 1615.34 428.55 1606.1 435.99 1616.29 430.11 1607.09 436.67 1616.83 431.05 1608.44 437.74 1617.6 432.45 1609.34 438.58 1618.13 433.5 1610.36 439.67 1618.77 434.81 1611.14 440.65 1619.28 435.96 1612.18 442.26 1619.98 437.76 1612.79 443.45 1620.41 439.05 1613.52 445.29 1620.9 441.03 1613.95 446.82 1621.11 442.69 1614.17 447.89 1621.12 443.88 1614.35 449.01 1620.94 445.21 1614.5 450.28 1620.68 446.71 1614.58 451.51 1620.55 448.06 1614.63 453.56 1620.5 450.17 1614.6 455.26 1620.59 451.81 1614.54 456.71 1620.75 453.13 1614.43 458.92 1621.13 455.05 1614.34 460.55 1621.52 456.41 1614.28 462.38 1622.05 457.89 1614.28 464.56 1622.88 459.59 1614.34 465.74 1623.42 460.5 1614.47 466.95 1624.07 461.42 1614.77 468.5 1625.04 462.57 1615.42 470.39 1626.09 464.23 1616.3 471.94 1626.09 466.29 1616.95 472.75 1626.1 467.48 1618.46 474.1 1626.1 469.69 1619.81 474.92 1626.11 471.29 1621.46 475.64 1626.11 472.96 1623.37 476.23 1626.11 474.65 1625.3 476.64 1626.12 476.17"/><polyline class="cls-1" points="1529.53 446.77 1581.67 416.66 1531.09 447.32 1584.7 416.37 1533.07 447.85 1588.29 415.97 1536.88 447.36 1592.12 415.47 1541.1 446.27 1595.38 414.93 1549.55 443.55 1567.65 433.1 1556.38 441.38 1566.37 435.61 1553.99 443.97 1565.21 437.49"/><polyline class="cls-1" points="1481.58 431.96 1482.25 431.57 1480.7 433.68 1483.81 431.88 1481.44 434.85 1485.86 432.3 1482.12 435.93 1510.08 419.79 1483.37 436.91 1510.79 421.07 1486.65 436.59 1511.47 422.26 1487.03 437.96 1512.2 423.43 1487.53 439.76 1513.33 424.87 1487.96 441.28 1514.5 425.95 1488.33 442.56 1515.72 426.74 1488.82 444.26 1517.32 427.81 1489.19 445.49 1518.31 428.68 1489.58 446.8 1519.33 429.62 1489.96 448.05 1520.34 430.5 1490.46 449.65 1521.81 431.55 1491.05 451.52 1523.92 432.54 1491.52 452.65 1525.61 432.97 1492.55 454.28 1529.14 433.16 1493.71 455.51 1533.53 432.52 1494.97 456.46 1539.61 430.69 1496.76 457.45 1565.57 417.72 1498.04 458 1567.95 417.63 1499.97 458.64 1571.32 417.45 1502.08 459.19 1574.77 417.22 1504.24 459.66 1578.21 416.96 1506.52 460.24 1527.3 448.24 1508.36 460.99 1525.7 450.97 1509.84 461.75 1524.84 453.1 1511.63 462.7 1524.11 455.5 1513.35 463.26 1514.59 462.55"/><polyline class="cls-1" points="1461.07 383.07 1476.33 374.25 1466.98 381.78 1478.4 375.19 1468.8 382.24 1479.69 375.95 1469.95 382.82 1480.66 376.64 1471.6 383.92 1482.16 377.82 1473.25 385.1 1483.72 379.06 1474.41 385.84 1484.75 379.87 1476.04 386.73 1486.07 380.94 1477.54 387.37 1487.11 381.85 1479.69 388.22 1488.34 383.23 1481.45 389.25 1489.29 384.72 1482.54 390.11 1489.9 385.86 1483.96 391.52 1490.78 387.58 1484.97 392.77 1491.5 389 1485.91 394.13 1492.24 390.47 1486.64 395.38 1492.9 391.77 1487.46 396.97 1493.7 393.37 1488.11 398.44 1494.41 394.79 1488.79 400.22 1495.23 396.49 1489.26 401.62 1495.86 397.81 1489.82 403.6 1496.71 399.63 1490.23 405.35 1497.45 401.18 1490.55 407.03 1498.18 402.62 1490.2 409.32 1499.21 404.12 1489.4 412.06 1501.48 405.09 1488.17 415.01 1501.97 407.04 1487.21 417.09 1502.56 408.23 1486.87 418.47 1503.08 409.11 1486.69 419.75 1503.65 409.96 1486.56 421.84 1504.67 411.38 1486.58 424 1505.8 412.9 1486.64 425.37 1506.5 413.9 1486.78 427.28 1507.46 415.34 1486.92 428.64 1508.13 416.4 1487.12 430.22 1508.88 417.65 1487.29 431.42 1509.44 418.63"/><polyline class="cls-1" points="1404.79 380.1 1412.36 375.72 1408.4 379.89 1415.11 376.01 1409.92 380.44 1417.33 376.17 1411.87 381.49 1421.09 376.17 1413.07 382.05 1423.66 375.94 1414.65 382.68 1427.41 375.32 1415.98 383.14 1430.62 374.68 1417.79 383.65 1434.41 374.06 1419.33 384.03 1436.97 373.85 1421.29 384.42 1439.83 373.71 1424.15 384.87 1443.6 373.64 1426.35 385.14 1446.27 373.64 1428.99 385.38 1449.28 373.67 1432.4 385.62 1452.95 373.75 1435.41 385.79 1456.09 373.85 1438.9 386.08 1459.83 374 1441.17 386.33 1462.31 374.12 1443.23 386.59 1465.98 373.45 1445.03 386.84 1468.78 373.13 1447.32 387.2 1471.6 373.18 1449.24 387.53 1473.59 373.47 1451.23 387.91 1475.42 373.94 1453.74 388.43 1454.88 387.77 1455.3 388.79 1455.86 388.47"/><polyline class="cls-1" points="1382.63 376.29 1385.61 374.57 1380.43 379.19 1391.43 372.84 1379.4 381.14 1395.35 371.93 1378.29 383.73 1398.35 372.14 1377.57 385.75 1400.02 372.79 1376.81 388.29 1401.94 373.79 1376.2 390.84 1404.17 374.69 1375.91 392.3 1405.89 374.99 1375.57 394.67 1409.05 375.34 1375.47 396.84 1401.56 381.78 1375.66 398.89 1398.1 385.93 1375.93 400.32 1397.23 388.02 1376.24 401.46 1396.87 389.55 1376.62 402.65 1396.61 391.11 1377.18 404.25 1396.35 393.18 1377.67 405.74 1396.17 395.06 1377.63 407.97 1396 397.37 1377.24 410.41 1395.86 399.66 1377.03 412.1 1395.79 401.27 1376.83 413.89 1395.72 402.99 1376.68 415.71 1395.65 404.75 1376.57 418 1395.59 407.01 1376.7 420 1395.54 409.12 1376.94 421.45 1395.51 410.74 1377.35 423.44 1395.46 412.99 1377.71 425.01 1395.43 414.78 1378.19 426.84 1395.39 416.91 1378.55 428.09 1395.36 418.38 1379.05 429.69 1395.3 420.31 1379.51 431 1395.21 421.94 1380.21 432.71 1395.06 424.13 1381.05 434.39 1394.95 426.36 1382.23 435.99 1394.86 428.7 1383 436.88 1394.81 430.06 1383.59 437.79 1394.77 431.33 1384.22 439.29 1394.7 433.23 1384.57 440.83 1394.65 435.01 1384.72 443.03 1394.58 437.34 1384.69 444.5 1394.53 438.81 1384.63 445.91 1394.49 440.21 1384.56 447.68 1394.44 441.97 1384.52 449.79 1394.39 444.1 1384.51 451.47 1394.34 445.79 1384.49 452.77 1394.31 447.11 1384.48 454.44 1394.27 448.8 1384.48 455.66 1394.23 450.03 1384.48 457.07 1394.2 451.45"/><polyline class="cls-1" points="1377.95 459.84 1380.67 458.27 1377.24 461.63 1383.75 457.88 1377.01 463.04 1388.53 456.38 1375.93 465.38 1388.12 458.34 1364.75 473.8 1386.88 461.02 1359.43 478.38 1384.5 463.91 1358.96 480.66 1366.73 476.18 1359.13 482.75 1364.37 479.72 1359.05 484.72 1363.13 482.36"/><polyline class="cls-1" points="1340.26 485.41 1340.42 485.32 1339.46 488.16 1343.5 485.83 1338.32 490.01 1348.73 484"/><polyline class="cls-1" points="1328.35 493.88 1329.71 493.1 1326.45 497.03 1331.2 494.29 1322.88 500.95 1350.61 484.94"/><polyline class="cls-1" points="1282.02 510.11 1297.58 501.12 1286.07 509.57 1297.78 502.81 1288.4 510.41 1298.7 504.46 1289.95 511.7 1300.72 505.49 1291.11 512.9 1303.28 505.88 1292.45 514.18 1306.78 505.91 1293.56 515 1309.59 505.74 1294.81 515.66 1312.44 505.48 1296.1 516.09 1315.46 504.92 1299.34 516.4 1351.95 486.02 1301.9 516.14 1353.02 486.63 1306.84 515.08 1355.73 486.85 1315.77 511.71 1362.14 484.93 1319.4 511.34 1354.83 490.88 1323 511.21 1349.94 495.66 1327.05 510.86 1347.71 498.93 1330.76 510.07 1346.57 500.94"/><polyline class="cls-1" points="1192.32 550.05 1290.85 493.16 1203.29 545.27 1293.15 493.39 1214.96 540.63 1295.97 493.87 1223.05 537.93 1297.15 495.14 1229.68 536.32 1297.43 497.21 1233.21 535.74 1297.5 498.62 1235.94 535.45 1297.55 499.88 1240.13 535.29 1276.25 514.44 1243.44 535.47 1274.72 517.41 1245.73 535.76 1259.14 528.02 1247.41 536.07 1256.27 530.96 1249.71 536.58 1254.51 533.81 1251.42 536.91 1253.83 535.52"/><line class="cls-1" x1="1277.21" y1="455.61" x2="1277.93" y2="455.2"/><polyline class="cls-1" points="1261.51 434.11 1290.61 417.3 1261.84 436.14 1288.22 420.91 1262.14 437.9 1287.28 423.39 1262.39 439.26 1286.84 425.15 1262.69 440.87 1286.49 427.13 1262.94 442.15 1286.31 428.66 1263.32 444 1286.12 430.84 1263.65 445.55 1285.99 432.65 1263.97 446.95 1285.84 434.33 1264.32 448.4 1285.6 436.12 1264.62 449.61 1285.19 437.73 1265.08 451.28 1283.61 440.58 1265.47 452.61 1282.34 442.88 1265.94 454.02 1281.2 445.21 1266.59 455.63 1279.93 447.92 1267.19 456.82 1278.81 450.12 1268.24 458.38 1277.45 453.07 1269.3 459.57 1277.61 454.78 1270.1 460.28 1274.29 457.86 1271.44 461.19 1273.75 459.86 1272.82 461.84 1273.7 461.33"/><polyline class="cls-1" points="1224.81 305.14 1226.75 304.02 1221.88 308.52 1227.79 305.11"/><line class="cls-1" x1="1193.18" y1="272.52" x2="1193.33" y2="272.44"/><line class="cls-1" x1="1182.56" y1="271.35" x2="1183.49" y2="270.82"/><line class="cls-1" x1="1174.24" y1="273.04" x2="1174.75" y2="272.75"/><line class="cls-1" x1="1279.85" y1="197.86" x2="1284.73" y2="195.04"/><line class="cls-1" x1="1382.33" y1="142.61" x2="1394.62" y2="135.51"/><line class="cls-1" x1="1411.18" y1="119.45" x2="1413.57" y2="118.07"/><polyline class="cls-1" points="1409.51 118.35 1411.88 116.98 1395.96 127.58 1413.04 117.72 1394.77 129.56 1401.24 125.82 1393.56 132.25 1398.24 129.55 1392.51 134.01 1397.13 131.35 1390.61 136.42 1396 133.31"/><polyline class="cls-1" points="1378.33 143.77 1382.1 141.6 1375.71 146.45 1377.3 145.53 1374 148.65 1374.84 148.16 1372.22 151.44 1373.22 150.86 1370.92 153.7 1372.44 152.82 1369.29 156.51 1371.86 155.03 1368.4 158.6 1371.58 156.76 1367.98 160.49 1371.41 158.5 1367.92 162.19 1371.29 160.25 1368.1 163.3 1371.23 161.49 1368.74 164.8 1371.19 163.39 1369.13 165.8 1371.19 164.62 1369.56 167.6 1371.27 166.62 1369.73 169.02 1371.38 168.07 1369.82 171.03 1371.64 169.97 1369.78 172.47 1371.9 171.24 1369.51 174.9 1372.53 173.16 1369.1 176.91 1372.96 174.67 1368.62 178.49 1373.05 175.94 1367.66 180.74 1372.9 177.71 1365.92 183.1 1372.46 179.32"/><polyline class="cls-1" points="1355.4 181.13 1355.51 181.06 1352.77 184.72 1354.09 183.96 1349.97 187.79 1353.1 185.98"/><polyline class="cls-1" points="1302.79 181.98 1304.14 181.2 1300.1 185.37 1307.08 181.34"/><polyline class="cls-1" points="1290.78 190.72 1297.08 187.08 1295.37 189.66 1309.26 181.64 1304.96 186.24 1311.97 182.19 1309.15 186.05 1314.6 182.91 1311.05 186.38 1316.18 183.41 1312.61 186.72 1317.51 183.9 1315.23 187.39 1319.72 184.8 1317.55 188.05 1321.64 185.69 1319.93 188.76 1323.54 186.68 1322.01 189.4 1325.18 187.56 1324.3 190.11 1327.15 188.46 1325.85 190.59 1328.58 189.02 1327.91 191.22 1330.61 189.67 1329.58 191.72 1332.38 190.11 1332 192.41 1335.15 190.59 1334.58 193.07 1338.46 190.83 1337.06 193.57 1342.05 190.68 1339.74 193.77 1346.8 189.7 1344.19 193.33 1355.13 187.02 1349.53 191.94 1359.34 186.28 1356.31 189.47 1371.97 180.42 1364.81 186.14 1369.69 183.32"/><line class="cls-1" x1="1282.53" y1="190.57" x2="1288.52" y2="187.12"/><polyline class="cls-1" points="1258.92 196.74 1269.04 190.9 1260.29 198.2 1272.1 191.38 1261.39 199.52 1274.41 192 1262.53 200.64 1276.11 192.8 1264.14 201.84 1277.4 194.19 1265.21 202.44 1292.72 186.56 1267.1 203.17 1295.19 186.95 1269.07 203.49 1285.7 193.89"/><polyline class="cls-1" points="1243.84 192.17 1246.52 190.62 1240.04 195.99 1248.72 190.98"/><polyline class="cls-1" points="1204.95 195.8 1211.55 191.99 1210.44 194.39 1214.09 192.29 1213.76 194.27 1216.43 192.73 1215.62 194.52 1218.05 193.12 1217.67 195.02 1219.99 193.68 1218.97 195.46 1221.31 194.11 1220.44 196.06 1222.87 194.66 1222.38 197.03 1225.01 195.51 1224.31 198.16 1227.22 196.48 1225.83 199.18 1229.01 197.34 1227.55 200.44 1231.04 198.43 1228.7 201.35 1232.44 199.2 1230.43 202.65 1249.66 191.54 1233.33 202.75 1250.92 192.6 1237.72 202.33 1253.48 193.24 1240.25 202.06 1256.03 192.96 1244.88 201.63 1263.74 190.73 1247.52 201.45 1266.15 190.7 1251.31 201.33 1258.2 197.36 1254.46 201.02 1257.18 199.45"/><polyline class="cls-1" points="1191.44 201.26 1207.32 192.09 1194.44 201.04 1210.21 191.93 1196.73 201.08 1197.76 200.49"/><polyline class="cls-1" points="1183.42 201.91 1187.21 199.72 1179.93 205.2 1197.3 195.17 1176.2 208.81 1204.05 192.72"/><polyline class="cls-1" points="1138.42 212.9 1146.02 208.51 1146.56 210.38 1150.07 208.35 1148.82 210.62 1152.89 208.27 1151.19 211.05 1156.05 208.24 1153.27 211.44 1158.76 208.27 1155.68 211.77 1161.52 208.4 1159.41 211.68 1164.4 208.79 1161.91 211.52 1165.87 209.23 1164.03 211.8 1167.46 209.81 1165.57 212.27 1168.85 210.38 1167 212.71 1170.24 210.84 1169.05 213.25 1205.01 192.49 1172.48 213.34 1184.6 206.35"/><polyline class="cls-1" points="1157.08 177.25 1161.46 174.72 1157.4 179 1161.68 176.53 1157.64 180.33 1161.76 177.95 1157.91 181.74 1161.77 179.51 1158.52 183.34 1161.59 181.56 1160.17 184.68 1160.88 184.26"/><polyline class="cls-1" points="1149.68 151.5 1150.03 151.3 1148.31 153.81 1150.78 152.39"/><polyline class="cls-1" points="1139.25 121.79 1141.14 120.7 1139.77 122.94 1141.13 122.15 1139.84 124.21 1141.14 123.45 1139.6 126.6 1141.3 125.63 1139.2 128.34 1141.59 126.96 1138.49 131.01 1142.55 128.66 1138.34 132.6 1143.01 129.9 1138.28 134.27 1143.41 131.31 1138.31 136.17 1143.77 133.02 1138.17 138.24 1144.09 134.83 1137.88 139.84 1144.28 136.15 1137.5 141.94 1144.49 137.9 1142.39 140.96 1144.66 139.65 1140.6 143.66 1144.86 141.21 1140.32 145.99 1145.36 143.08 1141.04 147.07 1145.7 144.38 1141.78 148.18 1146.03 145.72 1142.41 149.14 1146.31 146.89 1142.77 150.33 1146.59 148.12 1142.77 152.02 1146.91 149.63 1142.77 154.04 1147.24 151.46 1142.77 155.65 1147.41 152.97 1142.77 157.39 1150.96 152.66 1142.77 159.24 1151.87 153.99 1142.77 161.3 1152.88 155.47 1144.36 161.84 1153.51 156.56 1144.41 163.68 1154.3 157.97 1144.34 165.09 1154.92 158.98 1144.45 166.78 1155.79 160.24 1144.72 168.35 1156.73 161.42 1145.1 169.87 1157.63 162.63 1145.55 171.31 1158.32 163.94 1145.91 172.34 1158.76 164.93 1146.63 174.13 1159.45 166.73 1147.42 175.89 1160.07 168.59 1147.97 177.02 1160.43 169.83 1151.97 176.7 1160.87 171.56 1153.02 178.18 1161.25 173.43 1153.9 179.41 1156.87 177.69 1154.92 180.85 1156.51 179.94 1155.76 182.03 1156.21 181.77"/><polyline class="cls-1" points="0.5 0.79 1 0.5 0.5 1.99 3.07 0.5 0.5 3.21 5.2 0.5 0.5 5.25 8.72 0.5 0.5 7.1 11.94 0.5 0.5 8.77 14.83 0.5 0.5 10.09 17.11 0.5 0.5 11.46 19.49 0.5 0.5 13.13 22.38 0.5 0.5 14.56 24.85 0.5 0.5 16.04 27.42 0.5 0.5 17.97 30.76 0.5 0.5 19.36 33.16 0.5 0.5 21.4 36.7 0.5 0.5 23.57 40.46 0.5 0.5 25.69 44.12 0.5 0.5 27.88 47.92 0.5 0.5 29.97 51.55 0.5 0.5 31.64 54.44 0.5 0.5 33.34 57.37 0.5 0.5 34.49 59.38 0.5 0.5 36.79 63.36 0.5 0.5 38.64 66.56 0.5 0.5 40.82 70.34 0.5 0.5 42.28 72.86 0.5 0.5 44.08 75.99 0.5 0.5 45.66 78.73 0.5 0.5 47.74 82.32 0.5 0.5 49.86 85.99 0.5 0.5 51.95 89.61 0.5 0.5 54.22 93.55 0.5 0.5 56.31 97.17 0.5 0.5 58.27 100.56 0.5 0.5 60.43 104.29 0.5 0.5 61.84 106.75 0.5 0.5 64.15 110.74 0.5 0.5 65.55 113.16 0.5 0.5 66.91 115.53 0.5 0.5 69.05 119.23 0.5 0.5 70.92 122.46 0.5 0.5 72.97 126.03 0.5 0.5 74.71 129.04 0.5 0.5 76.56 132.23 0.5 0.5 78.31 135.26 0.5 0.5 79.93 138.08 0.5 0.5 81.76 141.24 0.5 0.5 83.6 144.43 0.5 0.5 85 146.86 0.5 0.5 86.45 149.37 0.5 0.5 88.03 152.11 0.5 0.5 90.27 155.97 0.5 0.5 91.68 158.42 0.5 0.5 93.82 162.13 0.5 0.5 95.11 164.36 0.5 0.5 97.03 167.7 0.5 0.5 98.93 170.98 0.5 0.5 100.25 173.26 0.5 0.5 102.54 177.23 0.5 0.5 104.16 180.04 0.5 0.5 105.94 183.12 0.5 0.5 108.2 187.04 0.5 0.5 109.99 190.14 0.5 0.5 111.92 193.48 0.5 0.5 113.25 195.79 0.5 0.5 114.66 198.22 0.5 0.5 116.96 202.22 0.5 0.5 118.22 204.39 0.5 0.5 119.93 207.35 0.5 0.5 121.42 209.93 0.5 0.5 122.77 212.28 0.5 0.5 124.77 215.74 0.5 0.5 126.16 218.15 0.5 0.5 128.35 221.95 0.5 0.5 130.04 224.87 0.5 0.5 131.83 227.97 0.5 0.5 133.67 231.15 0.5 0.5 134.93 233.33 0.5 0.5 136.72 236.43 0.5 0.5 138.21 239.01 0.5 0.5 139.69 241.59 0.5 0.5 141.38 244.5 0.5 0.5 142.59 246.6 0.5 0.5 144.69 250.23 0.5 0.5 146.62 253.59 0.5 0.5 148.08 256.11 0.5 0.5 149.4 258.4 0.5 0.5 150.82 260.86 0.5 0.5 152.74 264.18 0.5 0.5 154.65 267.49 0.5 0.5 155.91 269.68 0.5 0.5 157.88 273.08 0.5 0.5 159.65 276.15 0.5 0.5 161.5 279.35 0.5 0.5 163.63 283.05 0.5 0.5 165.25 285.85 0.5 0.5 167.5 289.74 0.5 0.5 169.46 293.15 0.5 0.5 171.27 296.28 0.5 0.5 173 299.27 0.5 0.5 174.64 302.12 0.5 0.5 176.4 305.17 0.5 0.5 177.95 307.85 0.5 0.5 179.7 310.88 0.5 0.5 181.53 314.06 0.5 0.5 183.45 317.38 0.5 0.5 185.59 321.08 0.5 0.5 186.84 323.25 0.5 0.5 188.59 326.27 0.5 0.5 189.86 328.47 0.5 0.5 191.39 331.13 0.5 0.5 193.02 333.94 0.5 0.5 194.45 336.43 0.5 0.5 195.78 338.72 0.5 0.5 197.47 341.66 0.5 0.5 199.05 344.4 0.5 0.5 200.38 346.69 0.5 0.5 202.07 349.62 0.5 0.5 204.06 353.06 0.5 0.5 206.02 356.46 0.5 0.5 208.25 360.33 0.5 0.5 209.95 363.26 0.5 0.5 211.83 366.53 0.5 0.5 213.11 368.75 0.5 0.5 214.3 370.81 0.5 0.5 216.2 374.11 0.5 0.5 218.03 377.27 0.5 0.5 220.1 380.85 0.5 0.5 221.52 383.31 0.5 0.5 222.77 385.48 0.5 0.5 224.71 388.83 0.5 0.5 226.04 391.14 0.5 0.5 227.47 393.62 0.5 0.5 229.46 397.06 0.5 0.5 230.66 399.14 0.5 0.5 232.15 401.72 0.5 0.5 233.45 403.97 0.5 0.5 235.21 407.02 0.5 0.5 236.82 409.81 0.5 0.5 239.11 413.78 0.5 0.5 240.42 416.05 0.5 0.5 242 418.78 0.5 0.5 243.2 420.87 0.5 0.5 245.22 424.36 0.5 0.5 247.51 428.33 0.5 0.5 249.3 431.43 0.5 0.5 250.71 433.87 0.5 0.5 252.68 437.28 0.5 0.5 254.01 439.59 0.5 0.5 256.1 443.2 0.5 0.5 258.36 447.11 0.5 0.5 260.46 450.76 0.5 0.5 261.83 453.13 0.5 0.5 263.95 456.8 0.5 0.5 265.44 459.38 0.5 0.5 266.99 462.07 0.5 0.5 268.71 465.04 0.5 0.5 269.95 467.2 0.5 0.5 271.24 469.42 0.5 0.5 273.32 473.03 0.5 0.5 275.36 476.57 0.5 0.5 277.56 480.37 0.5 0.5 279.17 483.16 0.5 0.5 281.01 486.36 0.5 0.5 282.82 489.49 0.5 0.5 284.84 492.98 0.5 0.5 286.16 495.27 0.5 0.5 287.87 498.23 0.5 0.5 290.05 502 0.5 0.5 291.82 505.08 0.5 0.5 293.88 508.63 0.5 0.5 296.05 512.39 0.5 0.5 297.81 515.45 0.5 0.5 300.03 519.29 0.5 0.5 301.5 521.84 0.5 0.5 303.17 524.74 0.5 0.5 304.49 527.01 0.51 0.5 306.21 530 0.51 0.5 308.35 533.7 0.51 0.5 310.42 537.28 0.51 0.5 312.1 540.2 0.51 0.5 314.07 543.61 0.51 0.5 315.73 546.48 0.51 0.5 317.7 549.9 0.51 0.5 319.82 553.58 0.51 0.5 321.67 556.77 0.51 0.5 323.69 560.26 0.51 0.5 325.94 564.17 0.51 0.5 327.76 567.32 0.51 0.5 330.04 571.28 0.51 0.5 331.49 573.78 0.51 0.5 333.51 577.28 0.51 0.5 334.74 579.4 0.51 0.5 336.19 581.93 0.51 0.5 338.23 585.45 0.51 0.5 339.63 587.88 0.51 0.5 341.09 590.41 0.51 0.5 342.92 593.59 0.51 0.5 345.18 597.49 0.51 0.5 347.33 601.22 0.51 0.5 349.24 604.52 0.51 0.5 350.8 607.23 0.51 0.5 352.71 610.54 0.51 0.5 354.14 613.01 0.51 0.5 356.42 616.96 0.51 0.5 358.61 620.75 0.51 0.5 359.87 622.93 0.51 0.5 362.16 626.91 0.51 0.5 363.38 629.02 0.51 0.5 364.99 631.8 0.51 0.5 367.17 635.58 0.51 0.5 368.82 638.44 0.51 0.5 369.99 640.47 0.51 0.5 371.94 643.84 0.51 0.5 373.34 646.26 0.51 0.5 375.42 649.87 0.51 0.5 376.62 651.95 0.51 0.5 378.01 654.35 0.51 0.5 379.91 657.64 0.51 0.5 381.43 660.28 0.51 0.5 382.82 662.69 0.51 0.5 384.56 665.71 0.51 0.5 386.08 668.33 0.51 0.5 387.55 670.89 0.51 0.5 389.06 673.5 0.51 0.5 391.24 677.27 0.51 0.5 393.3 680.84 0.51 0.5 394.72 683.29 0.51 0.5 396.35 686.12 0.51 0.5 397.86 688.74 0.51 0.5 399.31 691.25 0.51 0.5 401.1 694.35 0.51 0.5 403.35 698.24 0.51 0.5 404.73 700.63 0.51 0.5 406.64 703.95 0.51 0.5 408.22 706.68 0.51 0.5 410.52 710.66 0.51 0.5 412.24 713.65 0.51 0.5 413.42 715.68 0.51 0.5 414.8 718.07 0.51 0.5 416.87 721.67 0.51 0.5 418.32 724.17 0.51 0.5 420.43 727.83 0.51 0.5 421.9 730.38 0.51 0.5 423.07 732.4 0.51 0.5 424.66 735.15 0.51 0.5 426.73 738.74 0.51 0.5 428.91 742.51 0.51 0.5 430.83 745.85 0.51 0.5 432.77 749.21 0.51 0.5 434.61 752.39 0.51 0.5 436.56 755.76 0.51 0.5 438.26 758.71 0.51 0.5 440.51 762.6 0.51 0.5 441.7 764.68 0.51 0.5 443.31 767.47 0.51 0.5 444.96 770.32 0.51 0.5 446.21 772.48 0.51 0.5 447.87 775.36 0.51 0.5 449.85 778.79 0.51 0.5 451.36 781.39 0.51 0.5 452.6 783.54 0.51 0.5 454.11 786.16 0.51 0.5 456.41 790.15 0.51 0.5 458.71 794.13 0.51 0.5 460.91 797.94 0.51 0.5 462.5 800.7 0.51 0.5 464.15 803.55 0.51 0.5 465.64 806.13 0.51 0.5 466.84 808.21 0.51 0.5 468.05 810.3 0.51 0.5 469.48 812.78 0.51 0.5 470.8 815.08 0.51 0.5 472.75 818.45 0.51 0.5 474.06 820.71 0.51 0.5 476.15 824.34 0.51 0.5 478.3 828.06 0.51 0.5 480 831 0.51 0.5 481.37 833.37 0.51 0.5 482.62 835.54 0.51 0.5 484.13 838.15 0.51 0.5 486.04 841.47 0.51 0.5 487.38 843.8 0.51 0.5 488.69 846.06 0.51 0.5 490.69 849.52 0.51 0.5 492.58 852.8 0.51 0.5 494.51 856.14 0.51 0.5 496.16 859 0.51 0.5 497.4 861.15 0.51 0.5 499.42 864.63 0.51 0.5 501.35 867.98 0.51 0.5 503.18 871.15 0.51 0.5 504.85 874.05 0.51 0.5 506.17 876.33 0.51 0.5 508.29 880 0.51 0.5 509.45 882.01 0.51 0.5 511.45 885.48 0.51 0.5 513.65 889.29 0.51 0.5 515.24 892.04 0.51 0.5 516.88 894.89 0.51 0.5 518.99 898.54 0.51 0.5 521.22 902.4 0.51 0.5 523.12 905.69 0.51 0.5 525 908.95 0.51 0.5 526.86 912.17 0.51 0.5 529.05 915.96 0.51 0.5 530.45 918.39 0.51 0.5 532.06 921.17 0.51 0.5 533.42 923.53 0.51 0.5 535.48 927.09 0.51 0.5 537.59 930.76 0.51 0.5 539.76 934.51 0.51 0.5 541.22 937.04 0.51 0.5 542.8 939.77 0.51 0.5 545 943.59 0.51 0.5 546.82 946.74 0.51 0.5 548.58 949.78 0.51 0.5 549.78 951.87 0.51 0.5 551.99 955.69 0.51 0.5 553.23 957.85 0.51 0.5 555.08 961.04 0.51 0.5 556.66 963.79 0.51 0.5 558.28 966.59 0.51 0.5 560.13 969.79 0.51 0.5 561.96 972.96 0.51 0.5 564.11 976.68 0.51 0.5 565.29 978.73 0.51 0.5 567.28 982.18 0.51 0.5 569.41 985.87 0.51 0.5 570.81 988.29 0.51 0.5 572.18 990.66 0.51 0.5 573.56 993.05 0.51 0.5 575.58 996.56 0.51 0.5 577.52 999.91 0.51 0.5 579.54 1003.41 0.51 0.5 580.96 1005.86 0.51 0.5 582.58 1008.67 0.51 0.5 584.49 1011.99 0.51 0.5 586.22 1014.98 0.51 0.5 587.58 1017.34 0.51 0.5 589.67 1020.96 0.51 0.5 591.06 1023.37 0.51 0.5 592.99 1026.71 0.51 0.5 594.24 1028.87 0.51 0.5 596.04 1031.99 0.51 0.5 597.9 1035.22 0.51 0.5 599.45 1037.9 0.51 0.5 601.52 1041.49 0.51 0.5 603.39 1044.72 0.51 0.5 605.37 1048.14 0.51 0.5 607.58 1051.97 0.51 0.5 609.15 1054.7 0.51 0.5 610.4 1056.87 0.51 0.5 611.63 1058.99 0.51 0.5 613.37 1062 0.51 0.5 614.94 1064.72 0.51 0.5 616.86 1068.05 0.51 0.5 618.79 1071.4 0.51 0.5 620.57 1074.48 0.51 0.5 622.46 1077.76 0.51 0.5 624.44 1081.17 0.51 0.5 626.09 1084.04 0.51 0.5 627.6 1086.66 0.51 0.5 629.26 1089.54 0.51 0.5 630.95 1092.45 0.51 0.5 633.09 1096.17 0.51 0.5 635.12 1099.68 0.51 0.5 636.54 1102.14 0.51 0.5 638.24 1105.09 0.51 0.5 639.83 1107.83 0.51 0.5 641.36 1110.48 0.51 0.5 642.76 1112.91 0.51 0.5 644.85 1116.54 0.51 0.5 646.86 1120.01 0.51 0.5 648.11 1122.17 0.51 0.5 650.25 1123.77 1.73 0.5 652.5 1124.06 3.81 0.5 654.59 1124.38 5.72 0.5 656.85 1124.77 7.75 0.5 658.44 1125.08 9.17 0.5 659.61 1125.33 10.19 0.5 661.08 1125.66 11.47 0.5 662.62 1126.04 12.79 0.5 664.53 1126.56 14.4 0.5 666.07 1127.02 15.68 0.5 667.79 1127.59 17.06 0.5 669.91 1128.37 18.74 0.5 671.43 1129 19.89 0.5 673.57 1129.96 21.48 0.5 674.87 1130.52 22.45 0.5 676.61 1131.21 23.79 0.5 678.45 1131.87 25.25 0.5 680.09 1132.4 26.59 0.5 682.15 1132.97 28.32 0.5 683.55 1133.28 29.54 0.5 685.49 1133.61 31.29 0.5 687.26 1133.78 32.96 0.5 688.61 1133.8 34.3 0.5 690.4 1133.64 36.18 0.5 691.76 1133.31 37.74 0.5 693.46 1132.27 40.04 0.5 694.63 1127.12 44.18 0.5 695.85 1127.18 45.36 0.5 697.41 1127.57 46.7 0.5 699.11 1128.15 48.06 0.5 700.78 1128.81 49.36 0.5 703.03 1129.74 51.06 0.5 705 1130.61 52.53 0.5 707.18 1131.58 54.15 0.5 709.44 1132.58 55.84 0.5 710.82 1133.17 56.87 0.5 712.9 1134.03 58.45 0.5 715.11 1134.9 60.16 0.5 716.81 1135.52 61.5 0.5 718.27 1136.02 62.67 0.5 720.2 1136.64 64.25 0.5 722.35 1137.26 66.04 0.5 724.57 1137.83 67.94 0.5 725.98 1138.14 69.16 0.5 728.01 1138.55 70.96 0.5 729.79 1138.86 72.56 0.5 731.92 1139.16 74.51 0.5 733.68 1139.37 76.16 0.5 735.7 1139.57 78.06 0.5 737.8 1139.79 80.03 0.5 739.03 1139.93 81.18 0.5 740.56 1140.12 82.61 0.5 742.06 1140.31 83.99 0.5 744.15 1140.59 85.92 0.5 745.75 1140.82 87.39 0.5 747.43 1141.08 88.92 0.5 749.71 1141.45 90.98 0.5 751.76 1141.83 92.81 0.5 753.09 1142.09 94 0.5 755.37 1142.57 96 0.5 756.89 1142.93 97.31 0.5 758.37 1143.13 98.67 0.5 760.15 1142.88 100.59 0.5 761.97 1142.65 102.54 0.5 763.68 1142.44 104.39 0.5 765.48 1142.23 106.3 0.5 767.4 1142.02 108.34 0.5 769.1 1141.84 110.15 0.5 770.67 1141.69 111.81 0.5 772.7 1141.52 113.93 0.5 773.99 1141.42 115.28 0.5 775.47 1141.32 116.82 0.5 777.19 1141.22 118.59 0.5 779.39 1137.67 122.84 0.5 780.83 1136.29 125.08 0.5 782.49 1135.18 127.38 0.5 784.59 1134.16 130.07 0.5 786.13 1133.56 131.96 0.5 787.92 1132.98 134.09 0.5 789.85 1132.43 136.33 0.5 791.73 1131.97 138.48 0.5 793.38 1131.61 140.34 0.5 795.31 1131.24 142.48 0.5 796.55 1131.03 143.84 0.5 798.29 1130.75 145.74 0.5 799.8 1130.54 147.38 0.5 801.41 1130.34 149.1 0.5 802.9 1130.17 150.68 0.5 805.01 1130.41 152.66 0.5 806.73 1130.89 154.1 0.5 809 1131.51 156.01 0.5 810.58 1131.93 157.34 0.5 812.49 1132.44 158.96 0.5 814.74 1133.03 160.88 0.5 816.21 1133.41 162.12 0.5 818.27 1133.93 163.89 0.5 819.87 1134.33 165.26 0.5 822.02 1134.85 167.11 0.5 823.29 1135.14 168.2 0.5 824.68 1135.47 169.41 0.5 826.05 1135.78 170.6 0.5 827.41 1136.08 171.78 0.5 828.74 1136.36 172.95 0.5 830.4 1136.71 174.41 0.5 832.11 1137.04 175.92 0.5 833.74 1137.34 177.39 0.5 835.96 1137.7 179.4 0.5 837.41 1137.89 180.74 0.5 839.11 1138.06 182.34 0.5 840.34 1138.15 183.52 0.5 841.59 1138.24 184.71 0.5 843.27 1138.36 186.32 0.5 844.55 1138.46 187.55 0.5 846.31 1138.59 189.23 0.5 848.13 1138.73 190.97 0.5 850.22 1138.9 192.97 0.5 851.82 1139.03 194.49 0.5 853.32 1139.15 195.92 0.5 854.65 1139.26 197.19 0.5 856.17 1139.39 198.64 0.5 857.72 1139.52 200.11 0.5 859.35 1139.65 201.66 0.5 860.74 1139.77 202.98 0.5 862.45 1139.92 204.6 0.5 864.49 1140.1 206.54 0.5 866.14 1140.24 208.11 0.5 867.3 1141.09 208.78 0.5 869.43 1145.18 208.55 0.5 871.67 1137.82 215.04 0.5 873.31 1138.04 216.55 0.5 874.54 1138.63 217.43 0.5 876.54 1139.83 218.75 0.5 878.01 1140.09 220.07 0.5 879.21 1139.97 221.34 0.5 881.04 1139.56 223.41 0.5 882.46 1140.45 224.31 0.5 884.09 1141.46 225.36 0.5 885.33 1142.22 226.16 0.5 886.5 1142.92 226.92 0.5 888.11 1143.89 227.97 0.5 889.89 1144.94 229.15 0.5 891.94 1146.09 230.53 0.5 893.47 1146.9 231.59 0.5 895.67 1147.83 233.25 0.5 897.28 1148.48 234.49 0.5 898.51 1148.98 235.43 0.5 900.1 1149.6 236.67 0.5 902.29 1150.27 238.47 0.5 904.4 1150.64 240.37 0.5 905.85 1150.7 241.78 0.5 907.83 1150.55 243.85 0.5 909.34 1150.53 245.37 0.5 910.97 1150.64 246.93 0.5 912.22 1150.81 248.09 0.5 913.64 1151.07 249.36 0.5 915.38 1151.5 250.85 0.5 917.58 1152.26 252.61 0.5 919.74 1152.9 254.41 0.5 921.14 1153.01 255.73 0.5 922.86 1153.26 257.31 0.5 924.04 1153.57 258.32 0.5 925.86 1154.32 259.7 0.5 928.08 1155.65 261.15 0.5 929.69 1156.51 262.26 0.5 931.36 1157.18 263.55 0.5 933.02 1157.7 264.91 0.5 934.77 1158.17 266.39 0.5 936.67 1158.69 267.99 0.5 938.26 1159.23 269.27 0.5 939.73 1159.89 270.36 0.5 941.05 1160.7 271.21 0.5 942.85 1162.08 272.21 0.5 944.81 1163.88 273.13 0.5 946.8 1166.14 273.81 0.5 948.31 1168.36 274.04 3.19 948.47 1171.7 273.83 5.26 948.47 1173.81 273.81 8.79 948.47 1177.33 273.81 11.28 948.47 1183.3 271.81 14.56 948.47 1183.53 273.56 17.73 948.47 1185.73 274.12 21.45 948.47 1190.26 273.66 23.96 948.47 1193.81 273.06 26.87 948.47 1194.63 274.26 29.49 948.47 1195.33 275.37 33.03 948.47 1196.39 276.8 37 948.47 1197.12 278.68 40.29 948.47 1196.11 281.16 42.58 948.47 1196.71 282.13 45.87 948.47 1197.89 283.35 48.73 948.47 1199 284.36 52.58 948.47 1200.47 285.73 56.33 948.47 1202.06 286.98 59.06 948.47 1203.24 287.88 62.4 948.47 1204.69 288.96 65.35 948.47 1205.97 289.93 68.11 948.47 1207.15 290.84 71.45 948.47 1208.55 291.96 73.76 948.47 1209.49 292.75 76.05 948.47 1210.37 293.56 79.64 948.47 1211.61 294.92 81.88 948.47 1212.13 295.92 85.07 948.47 1212.6 297.49 87.85 948.47 1213.11 298.8 90.75 948.47 1214.13 299.88 93.55 948.47 1214.87 301.07 95.8 948.47 1214.85 302.38 98.07 948.47 1215.06 303.57 101.91 948.47 1216.04 305.22 103.99 948.47 1216.75 306.01 107.87 948.47 1217.74 307.68 110.5 948.47 1218.37 308.84 113.02 948.47 1219.31 309.75 115.1 948.47 1228.21 305.81 117.11 948.47 1228.83 306.61 120.03 948.47 1230.66 307.25 123.31 948.47 1233.26 307.63 126.16 948.47 1234.02 308.84 128.2 948.47 1234.53 309.72 130.26 948.47 1235.01 310.64 133.11 948.47 1235.62 311.94 135.79 948.47 1236.12 313.19 138.44 948.47 1236.54 314.48 142.1 948.47 1236.95 316.36 144.2 948.47 1237.08 317.49 147.37 948.47 1237.12 319.3 151.08 948.47 1238.08 320.89 153.58 948.47 1240.25 321.07 156.76 948.47 1241.79 322.02 159.28 948.47 1242.71 322.95 162.87 948.47 1243.81 324.38 166.13 948.47 1244.69 325.76 169.05 948.47 1245.4 327.03 171.94 948.47 1246.06 328.32 174.31 948.47 1246.58 329.39 177.4 948.47 1247.27 330.77 179.68 948.47 1247.79 331.79 182.69 948.47 1248.49 333.12 186.63 948.47 1249.45 334.85 189.16 948.47 1250.09 335.94 191.76 948.47 1250.77 337.04 193.8 948.47 1251.33 337.9 197.47 948.47 1252.42 339.39 199.84 948.47 1253.18 340.32 202.41 948.47 1254.1 341.27 206.23 948.47 1255.74 342.53 208.87 948.47 1257.13 343.25 211.8 948.47 1258.77 343.99 214.51 948.47 1260.24 344.71 218 948.47 1262.07 345.67 220.92 948.47 1263.56 346.5 224.51 948.46 1265.34 347.54 227.54 948.46 1266.81 348.44 231.08 948.46 1268.48 349.52 234.34 948.46 1269.99 350.53 237.04 948.46 1271.21 351.39 239.97 948.46 1272.5 352.33 243.41 948.46 1273.98 353.46 246.68 948.46 1275.35 354.56 250.58 948.46 1276.93 355.9 253.46 948.46 1278.06 356.91 257.35 948.46 1279.54 358.3 261.01 948.46 1280.88 359.64 264 948.46 1281.93 360.76 266.98 948.46 1282.95 361.89 270.58 948.46 1284.13 363.29 273.27 948.46 1284.97 364.36 276.51 948.46 1285.94 365.67 280.46 948.46 1287.06 367.31 284.37 948.46 1288.08 368.97 286.63 948.46 1288.64 369.95 290.16 948.46 1289.46 371.52 293.66 948.46 1290.2 373.11 296.77 948.46 1290.8 374.56 300.54 948.46 1291.44 376.37 303.45 948.46 1291.87 377.8 307.34 948.46 1292.35 379.77 311.01 948.46 1292.85 381.6 314.27 948.46 1293.81 382.93 316.46 948.46 1293.95 384.11 319.96 948.46 1293.78 386.23 322.24 948.46 1293.49 387.71 324.33 948.46 1293.14 389.12 326.34 948.46 1292.73 390.52 328.42 948.46 1292.25 391.99 332.35 948.46 1291.23 394.85 334.71 948.46 1290.73 396.5 336.9 948.46 1290.41 397.96 339.64 948.46 1290.17 399.67 343.63 948.46 1290.13 402 347.17 948.46 1290.32 403.93 350.73 948.46 1290.69 405.77 352.99 948.46 1290.99 406.9 356.37 948.46 1291.48 408.57 359.84 948.46 1291.96 410.3 363.03 948.46 1292.27 411.96 365.72 948.46 1292.28 413.51 368.63 948.46 1291.75 415.5 370.86 948.46 1261.06 434.5 373.22 948.46 1260.24 436.34 377.2 948.46 1259.47 439.08 380.98 948.46 1259.12 441.47 384.97 948.46 1259.03 443.82 388.91 948.46 1259.14 446.03 391.3 948.46 1259.29 447.32 393.75 948.46 1259.51 448.62 397.02 948.46 1259.87 450.29 399.67 948.46 1260.22 451.62 402.4 948.46 1260.64 452.96 405.16 948.46 1261.11 454.28 408.09 948.46 1261.66 455.65 410.96 948.46 1262.24 456.98 413.88 948.46 1262.87 458.3 417.35 948.46 1263.67 459.84 419.53 948.46 1264.2 460.79 423 948.46 1265.08 462.28 425.91 948.46 1265.86 463.51 428.25 948.46 1266.51 464.49 432.07 948.46 1267.6 466.06 434.38 948.46 1268.29 467 437.11 948.46 1269.12 468.1 439.76 948.46 1269.95 469.15 442.97 948.46 1270.98 470.4 446.8 948.46 1272.25 471.88 450.22 948.46 1272.89 473.49 453.55 948.46 1272.81 475.46 455.74 948.46 1272.83 476.71 458.25 948.46 1272.95 478.09 461.94 948.46 1273.34 480 464.72 948.46 1273.88 481.29 466.93 948.46 1274.53 482.19 470.47 948.46 1276.12 483.32 472.61 948.46 1277.24 483.9 475.95 948.46 1279.03 484.8 478.01 948.46 1280.02 485.42 481.41 948.46 1281.31 486.64 485.24 948.46 1282.3 488.28 487.89 948.46 1282.85 489.49 490.34 948.46 1283.59 490.48 494.23 948.46 1285.3 491.73 497.27 948.46 1287.1 492.45 499.92 948.46 1288.99 492.89 502.83 948.46 1182.12 556.27 504.93 948.46 1179.69 558.88 507.87 948.46 1178.13 561.48 510.61 948.46 1177.31 563.54 513.65 948.46 1176.71 565.64 517.65 948.46 1176.19 568.25 519.79 948.46 1175.97 569.61 523.5 948.46 1175.66 571.94 527.17 948.46 1175.42 574.19 529.31 948.46 1175.32 575.48 532.11 948.46 1175.2 577.16 534.85 948.46 1175.11 578.8 537.01 948.46 1175.05 580.08 539.99 948.46 1174.98 581.84 542.14 948.46 1174.93 583.11 544.68 948.46 1174.87 584.62 547.85 948.46 1174.79 586.49 550.38 948.46 1174.7 588 552.65 948.46 1174.61 589.37 555.27 948.46 1174.48 590.96 558.35 948.46 1174.26 592.86 562.13 948.46 1173.88 595.26 566.02 948.46 1173.27 597.86 569.77 948.46 1172.28 600.6 573.38 948.46 1170.37 603.78 575.87 948.46 1166.66 607.37 578.91 948.46 1163.38 611.01 582.61 948.46 1160.88 614.59 585.42 948.46 1159.44 617.04 588.3 948.46 1158.23 619.41 590.73 948.46 1157.35 621.32 594.1 948.46 1156.34 623.85 596.74 948.46 1162.47 621.83 600.66 948.46 1165.25 622.49 602.86 948.46 1166.36 623.12 606.11 948.46 1167.68 624.23 609.79 948.46 1168.93 625.64 613.37 948.46 1169.95 627.12 615.44 948.46 1170.47 628.01 618.86 948.45 1171.18 629.57 621 948.45 1171.51 630.61 624.73 948.45 1171.84 632.58 628.24 948.45 1171.83 634.61 631.23 948.45 1171.52 636.52 634.7 948.45 1170.75 638.97 637.93 948.45 1169.49 641.56 641.85 948.45 1167 645.26 644.09 948.45 1164.78 647.83 648.01 948.45 1162.2 651.59 651.8 948.45 1163.78 652.86 655.23 948.45 1165.08 654.09 658.52 948.45 1166.22 655.33 660.95 948.45 1166.98 656.29 663.01 948.45 1167.59 657.13 665.37 948.45 1168.21 658.13 667.95 948.45 1168.82 659.28 671.94 948.45 1169.58 661.14 674.64 948.45 1169.94 662.49 678.58 948.45 1170.24 664.59 681.66 948.45 1170.22 666.38 684.66 948.45 1169.94 668.28 688.47 948.45 1169.09 670.97 690.7 948.45 1168.3 672.71 694.05 948.45 1166.84 675.49 697.78 948.45 1164.72 678.86 701.12 948.45 1162.91 681.84 703.17 948.45 1162.48 683.27 706.71 948.45 1162.71 685.18 709.02 948.45 1163.19 686.24 711.17 948.45 1163.76 687.15 713.84 948.45 1164.56 688.23 717.11 948.45 1165.62 689.5 720.77 948.45 1166.87 690.89 722.83 948.45 1167.6 691.67 724.95 948.45 1168.33 692.47 728.55 948.45 1169.41 693.92 731.92 948.45 1170.26 695.38 734.67 948.45 1170.82 696.64 738.54 948.45 1171.41 698.53 740.66 948.45 1171.63 699.63 742.82 948.45 1171.77 700.8 746.55 948.45 1171.8 702.93 749.4 948.45 1154.69 714.46 752.49 948.45 1155.84 715.57 755.55 948.45 1156.85 716.76 758.8 948.45 1157.78 718.1 761.2 948.45 1158.36 719.15 765.07 948.45 1159.1 720.96 767.77 948.45 1159.46 722.31 770.27 948.45 1159.64 723.65 773.39 948.45 1159.65 725.45 777.07 948.45 1159.73 727.52 779.94 948.45 1160.43 728.77 782.75 948.45 1161.66 729.69 786.18 948.45 1163.19 730.78 789.68 948.45 1164.41 732.1 793.66 948.45 1165.42 733.82 795.95 948.45 1165.86 734.88 798.46 948.45 1166.27 736.1 802.08 948.45 1166.72 737.92 804.42 948.45 1166.95 739.14 807.97 948.45 1167.22 741.03 811.61 948.45 1167.42 743.02 815.1 948.45 1167.54 744.97 817.95 948.45 1167.6 746.58 821 948.45 1167.63 748.32 823.57 948.45 1168.07 749.55 825.73 948.45 1168.74 750.41 829.06 948.45 1169.68 751.79 832.68 948.45 1170.6 753.36 835.55 948.45 1171.26 754.63 837.8 948.45 1171.74 755.65 841.61 948.45 1172.47 757.42 844.38 948.45 1172.94 758.75 847.28 948.45 1173.37 760.18 850.98 948.45 1173.82 762.06 853.97 948.45 1174.11 763.62 856.16 948.45 1174.28 764.78 858.67 948.45 1174.42 766.15 860.76 948.45 1174.49 767.32 864.19 948.45 1174.88 769.07 867.45 948.45 1176.22 770.18 871.34 948.45 1177.68 771.58 875.17 948.45 1178.99 773.03 878.62 948.45 1180.09 774.4 882.56 948.45 1181.23 776.01 885.29 948.45 1181.96 777.17 888.42 948.45 1182.72 778.53 891.84 948.45 1183.49 780.06 895.46 948.45 1184.21 781.74 897.76 948.45 1184.62 782.83 900.7 948.45 1185.1 784.25 903.04 948.45 1185.43 785.41 906.61 948.45 1185.85 787.23 908.95 948.45 1186.07 788.45 911.74 948.45 1186.29 789.94 914.23 948.45 1186.43 791.29 917.75 948.45 1186.53 793.27 921.28 948.45 1186.44 795.36 924.99 948.45 1185.92 797.8 928.97 948.45 1184.17 801.11 932.86 948.45 1175.58 808.31 936.3 948.45 1173.87 811.28 939.49 948.45 1173.59 813.29 942.43 948.45 1173.71 814.92 944.66 948.45 1173.93 816.08 947.31 948.45 1174.3 817.39 949.62 948.45 1174.68 818.51 953 948.45 1175.32 820.09 956.63 948.45 1176.1 821.74 959.54 948.45 1176.77 823.03 961.68 948.45 1177.27 823.97 963.76 948.45 1177.79 824.88 967.06 948.45 1178.63 826.29 969.28 948.45 1179.24 827.23 972.58 948.45 1180.2 828.58 975.56 948.45 1181.15 829.75 978.76 948.45 1182.29 830.94 981.27 948.45 1183.29 831.81 983.27 948.45 1184.15 832.47 985.48 948.45 1185.12 833.18 988.63 948.45 1186.33 834.3 991.44 948.45 1187.17 835.44 993.81 948.45 1187.75 836.48 995.9 948.45 1188.18 837.43 999.88 948.45 1188.89 839.32 1003.67 948.45 1189.47 841.17 1005.96 948.45 1189.79 842.31 1009.51 948.45 1190.25 844.1 1012.82 948.45 1190.65 845.77 1015.1 948.44 1190.92 846.94 1017.88 948.44 1191.23 848.36 1021 948.44 1191.56 849.97 1024.5 948.44 1191.93 851.78 1028.31 948.44 1192.31 853.75 1032.23 948.44 1192.7 855.8 1036.09 948.44 1193.06 857.81 1038.48 948.44 1193.29 859.06 1042.3 948.44 1193.64 861.07 1045.82 948.44 1193.96 862.91 1048.42 948.44 1194.2 864.28 1050.71 948.44 1194.41 865.48 1054.2 948.44 1194.73 867.31 1057.54 948.44 1195.03 869.07 1060.28 948.44 1195.28 870.5 1064.15 948.44 1195.63 872.53 1066.93 948.44 1195.87 874 1070.23 948.44 1196.16 875.74 1073.1 948.44 1196.41 877.25 1075.62 948.44 1196.63 878.58 1078.44 948.44 1196.87 880.07 1080.77 948.44 1197.06 881.3 1083.5 948.44 1197.28 882.75 1087.12 948.44 1197.55 884.68 1089.26 948.44 1197.7 885.83 1091.49 948.44 1197.84 887.04 1094.03 948.44 1197.97 888.44 1096.46 948.44 1198.04 889.79 1099.22 948.44 1188.41 896.95 1102.75 948.44 1185.2 900.84 1105.98 948.44 1184.59 903.06 1109.09 948.44 1184.39 904.96 1111.94 948.44 1184.39 906.61 1115.2 948.44 1184.51 908.42 1118.97 948.44 1184.76 910.46 1121.35 948.44 1184.95 911.72 1125.23 948.44 1185.33 913.74 1129.09 948.44 1185.75 915.73 1132.11 948.44 1186.1 917.27 1134.56 948.44 1186.39 918.52 1137.43 948.44 1186.71 919.99 1140.79 948.44 1187.03 921.74 1142.99 948.44 1187.22 922.91 1145.79 948.44 1187.41 924.41 1149.61 948.44 1187.61 926.5 1153.11 948.44 1187.72 928.46 1156.76 948.44 1187.78 930.53 1159.94 948.44 1187.77 932.38 1162.86 948.44 1187.71 934.1 1165.34 948.44 1187.62 935.58 1169.05 948.44 1187.42 937.83 1172.84 948.44 1187.14 940.19 1176.27 948.44 1186.8 942.36 1179 948.44 1186.47 944.13 1182.55 948.44 1185.95 946.47 1184.94 948.44 1185.52 948.11"/></g><g id="terre"><path class="cls-2" d="M1626.11.47V463.55c-5.18-4.38-6.43-12.46-5.11-18.52,2.22-10.23-18.45-34.89-20.23-32s-32,4.66-35.33,4.66-8.89,6.89-26.22,13.11a35.25,35.25,0,0,1-10.32,2.34c-7.9.33-9.52-4.5-13-6.34-4.66-2.44-4.66-6.89-11.11-15.33-3.48-4.56-3.46-6.4-3.12-7,.65-.26.24-.45,0,0l-.43.13c-2.67.67-2.67-1.78-8.22-12.67s-3.56-8.22-11.78-14.88a17.36,17.36,0,0,0-8.94-3.8h-.12a14.65,14.65,0,0,0-1.83-.14,20.11,20.11,0,0,0-7.11,1.06s-23.11-1.34-31.11.22-10.67,2.44-19.78,1.33-7.56-.44-12.22-2.89-8.67.45-14.67,1.78-9.78,15.78-10,21.33,2.83,9.67,2.33,11.34a62.09,62.09,0,0,0-1.22,11.78c.17,2.5,2.56,13.94,5.67,17s2.44,7.38,2.33,10.83-.11,11-.11,11-6.78-.45-7.22,3.67-1.89,4.05-3,5.5-9.22,5.61-9.83,7.16-6.22,1.61-5.44,7.56-2.23,4.89-4.34,5.11-3.66-1.78-4.94-2.67-3.28,1-6.22,1.61-3.23-.83-3.23-.83c-.22,2.33-1,5.17-5.89,8.67s-3.61-4.73-7.38,2.39-12.78,9.22-12.78,9.22c-17.89,2.11-16.45-1.11-16.67-6.11s-.22-5.23-3.44-5.67-9.89-.33-11.56-4.67-4.78-4.11-7.67-6.33-1.88-9.78-1.88-9.78c-21.78-24.22-11.56-38.78-11.56-38.78s2.11,13.89,4.67,20.67,7.66,7.56,7.66,7.56c-.66-7.34,4.78-6.56,4.78-6.56s-2.44-.78-.22-4.55,3.44-7.78,6.22-11.89-.15-14.63,5.78-21.45-3.56-11,1.18-23.55,1.19-12.6,1.19-12.6c-3.56-23.26-31.7-36.59-34.67-37.92s-5.48-1.93-11.85-15.11-9.18-4-9-9.93-4.59-12-4.59-12c-6.22,3.26-3.41-7.11-8.89-.15s-4.89,1.34-7.41-1-.59-5.49-1.77-5.49-1.63-1.63-2.37-4.14-10.23-8.6-12.3-10.67-5-4-3.26-5.63-.44-2.67-.89-3.56-3-4.74-2.52-3.4-3.7,1.63-3.7,1.63,4.3-2.08-2.67-.26-.66-6.52-4.77-2-7.67-.44-7.78,1-.11.56-3.78,1a12.35,12.35,0,0,1-9.78-2.77c-2.78-2.34-2.22-7.56-5.33-10.34s-1.89-6.55-2.78-7.77-2.44-5.45-1.89-10.23-2.11-7.77-3-10-8.22-9.55-8.22-9.55,1.78-4.11-.44-5.56c-1.52-1-1.23-3-.89-4.18,0-.13.07-.24.11-.34a2.56,2.56,0,0,1,.09-.26c0-.13.08-.22.1-.27s0,0,0,.06a.15.15,0,0,0,0,.07c-.05.37.19,1,3.49-1.3,4.23-2.89,11.12,1,16.67.33s4.56,0,10.33,1.45,12.56-4,12.56-4,7.44-6.89,9-7.67,6.78-.44,6.78-.44,4.33-5.67,13.66-6.78,17.78,7.22,19.34,8.22,11.78-1.22,21.44-1.22,4.42-8.45,9-2.67,11.24,6.11,14.24,2.45,8.78-4.11,8.78-4.11,1.78-5.56,9.89-7,6.56-2.12,11.78-3.89,26.22,7.44,33.67,7.66,15.33-3.66,25.88-7.66,7.89-12.56,7.89-12.56-2.44-3.67-1.22-16.33,12-15,12-15,6.52-2.37,9.63-5,4.3-8.89,10.37-13.34,10.67-5.48,10.67-5.48l-1.33-.86-1.19-.77-6.07,4.3s-8.74,2.81-11.11,9-7.71,10.37-12.3,11.4-9.33,8.74-9.33,8.74L1369,157s-2.23,4.45-.45,7.56,1.93,11.85-1.48,17.18-14.52,5.48-14.52,5.48l3.4-6.94c-.26.4-4.39,6.86-7.55,8.72s-14.22,3.71-24.44-2.07-19.56-5.93-20.45-5.63-2.07,3.55-5,5.33-5.63-2.07-12.15,1.48-8.45,7.85-9.56,5.41-13.55-3.78-16.44-2-7.56,1.78-8.45,1.78-4.22-5.78-8.66-.45-9.78,7.11-11.11,6.23-11.56-6.67-21.34-7.12a26.49,26.49,0,0,0-10.4,2c-5.66,2.12-10.47,5.27-13.15,5.83-4.22.89-9.78,9.11-13.34,10.67s-4.44-.22-9.33-1.56-24.22,0-24.22,0-1.56-16.66-2.22-26.22-8-30.89-8-30.89,1.33-17.33,6-26.22,4,.67,2.89,3.33-.67,8.45-.67,8.45l-1.11,6,5.52-2.89-3.08,4.67,3.08,4.66v12.45s2-3.56,1.59,2.22,4.44,14.22,4.44,14.22l3.11-2,4.23,6L1157,177l1.11,6,2.44,2c3.56-6.67-1.33-20.89-3.55-23.34a26.32,26.32,0,0,1-3.78-5.78l-3.34-4.88s-2.66,5.33-2.44,2.66-2.67-12.89-2.67-12.89a66.89,66.89,0,0,0-1.22-9c-.06-.25-.09-.4-.09-.4a10.45,10.45,0,0,0-1.58-3.94c-2.22-2.67,1.34-29.33,1.34-29.33s-2.22-6.23-3.78-21.56c0-.3-.06-.6-.1-.89-1.71-14.68-8-20.8-11.23-27.78s2.66-4.44,4.66-8.66,1.34-11.34-3.33-18.67S1123.66.47,1123.66.47Z"/><path class="cls-2" d="M1626.11,476.8V948.47H1185.44s4.67-14.78.89-30.33-2-19.78,5.33-22.89,8.89,5.33,2-34.22-7.33-19.34-17.33-38.89,10.89-12.89,10.22-29.34-12-24-12-24a30.46,30.46,0,0,0-6.89-19.77c0-24.23-8.66-16.23-8-23.34.65-6.9-5-11.28-5.31-11.54l3.76.88.44-2.67,4.89.22,2.22,1.11-2.22,4.67,1.33-1.78,1.11,3.78,1.12-1.78,2.88-2,3.56,2-1.56-5.11-4.44,2s9.78-13.78.22-23.78-4-8.22,1.34-20.44-7.56-20.22-7.56-20.22,15.33-12.23,8.89-23.34-14.22-3.11-14.22-3.11,3.77-11.78,12.22-18.67,5.55-21.55,7.55-35.55,5.34-16.45,37.56-29.11,38.67-.22,40.44-5.78,6.67-8.89,11.34-11.33a10.55,10.55,0,0,1,8.44-.89s-.22-10.89,9.11-13.34,6.45,8.45,19.34,6.23,6.66-4.67,20.66-4.89,23.56-9.78,23.56-9.78c6.44-12.67,13.78-12.22,15.33-15.33s2.78-11.95,15.56-17.56,11.33-13.78,11.33-13.78l5.56,1.56s.66-29.56,1.11-34.22,0-28.67,2.22-34.67,8.44-9.33,12.67-6.89,9.77,4.45,23.11,5.11a122.12,122.12,0,0,1,23.78,3.56l-3.12-2.22c16.67-10.45,14.45-2.67,24.45.66s12.22,19.56,12.22,19.56a25.41,25.41,0,0,1-2.89,8.66c-2.44,4.45-.22,16.67-.22,16.67l-5.56-1.11-1.33,2,2.22,3.56,3.78-.67s2.22,8.22,4.45,15.11,11.11,7.56,15.11,8.67,7.77,5.11,8.66,2,8.89-3.11,8.89-3.11c-.22-3.34,3.11-12.67,6-12.23s.22,3.56,20.22-3.33-7.11,4.89,8.67-1.11-.19-20.94,37.33-10.67C1632.56,441.74,1598.82,472.9,1626.11,476.8Z"/><path class="cls-3" d="M1144.78,686s-2.67-1.89,0-1.56,4.22.22,5.66-.89,5.12-1.22,4.78,0-3.89,3.22-3.44,5.22,3.46,5.34,3.46,5.34a10.52,10.52,0,0,1-5.35-3.78A14.84,14.84,0,0,0,1144.78,686Z"/><path class="cls-4" d="M1501.65,404.45c.24-.45.65-.26,0,0Z"/><polygon class="cls-4" points="1339.89 503.47 1342.83 501.75 1341.61 503.8 1339.89 503.47"/><path class="cls-4" d="M1242.63,197.69s2.59-4,5.41-3,0,2,0,2-.15,1,.15,1-1.26.89-1.63.89h-3.63Z"/><polygon class="cls-4" points="1251.44 196.54 1249.29 198.14 1251.44 198.14 1254.18 196.54 1251.44 196.54"/><polygon class="cls-4" points="1261.37 194.51 1265.22 192.36 1271.07 195.25 1261.37 194.51"/><polygon class="cls-4" points="1269.56 192.8 1272.63 194.91 1273.3 194.51 1269.56 192.8"/><path class="cls-4" d="M1268.56,197.34l6-.8s-2,3.49-3.41,3.15S1268.56,197.34,1268.56,197.34Z"/><polygon class="cls-4" points="1265.18 197.66 1267.44 197.34 1266.56 198.91 1265.18 197.66"/><polygon class="cls-4" points="1266.56 200.62 1269.56 199.88 1267.44 201.73 1266.56 200.62"/><polygon class="cls-4" points="1269.56 201.95 1271.96 199.88 1273.63 200.91 1271.59 202.25 1269.56 201.95"/><path class="cls-4" d="M1327.06,501.69c-.39.09,2.22-5.28,4.83-5.55a24.22,24.22,0,0,0,5.5-1.45,43.34,43.34,0,0,0,3-4.83c.17-.72,1.62-1.95,3.45-2.06s2.39-2,3.67-1.5,1,2.34,2.55,2.17,5-1.06,2,1.61-5.73,5.45-6.62,7.72-.94,2.23-3.72,2.67-3.33,2.94-5,3S1331.06,500.75,1327.06,501.69Z"/><path class="cls-4" d="M1309.11,510.64a12.92,12.92,0,0,1,3.11-1.45c.84-.05,1.5,1.67-.22,2.17A3,3,0,0,1,1309.11,510.64Z"/><path class="cls-4" d="M1284.06,492.86c-.06.17.22,8.5.22,8.5s1.22-5.67.89-7.17S1284.06,492.86,1284.06,492.86Z"/><polygon class="cls-4" points="1271.83 485.03 1269.44 491.58 1273.39 485.92 1271.83 485.03"/><polygon class="cls-4" points="1144.85 684.21 1144.26 682.28 1148.41 684.21 1153.3 681.25 1155.96 682.73 1151.82 686.58 1154.18 691.47 1151.07 691.47 1147.52 686.36 1144.85 684.21"/><path class="cls-4" d="M1126.63,603.32s-7-5.63-7.26-11,5.78,1.48,7.41,5A5.93,5.93,0,0,1,1126.63,603.32Z"/><path class="cls-4" d="M1116.41,587.32s-2.82-3.41.15-2.81S1116.41,587.32,1116.41,587.32Z"/><path class="cls-4" d="M1501.65,404.45c.24-.45.65-.26,0,0Z"/></g><g id="routes"><path class="cls-5" d="M1139.35,75.69s4.32-6.29,4.91-9-5.36-10.07-3.35-15.7.7-19.71.91-24S1135.07.47,1135.07.47"/><path class="cls-5" d="M1157,161.69a31.59,31.59,0,0,0-4.59-11.54c-3.56-5.05-3-11.1-5.63-13.05s-3.32-5.69-3.32-5.69"/><path class="cls-5" d="M1160.55,185s-4.88,6.73-1.62,9.48,8.58,3.31,16.58,4.8"/><path class="cls-5" d="M1200.37,193.86a24.84,24.84,0,0,1,.39-5.34c.53-2.79,1.72-5.79,4.39-6.68a108,108,0,0,0,11.81-5"/><path class="cls-5" d="M1217,182.73s-.85-1.78-6.48,1.48a43,43,0,0,1-9.72,4.31"/><path class="cls-5" d="M1382.18,141.54s-.14-5.63-1.92-6.81-8.3-.41-6.52-3.32a8.13,8.13,0,0,0,1.19-5.57,5.88,5.88,0,0,1-1.49-2.67c-.29-1.48,2.08-4.74,2.08-4.74s-3-3.55-.3-4.44,8.6-2.67,8.6-4.15a33.47,33.47,0,0,1,0-5.51,12.46,12.46,0,0,0,0-3.67s3.55-2.67,2.07-4.15.72-3.85.36-5.93-4.51-3-5.1-3.85,4.06-4.15,5.14-3.85-4.55-3.26-1.59-5.93,5-6.52,6.23-8.29-.6-12.15,0-13.34A42.83,42.83,0,0,1,1399.22,45c5-4.74-1.78-8.89-1.78-8.89s3.86.89,5.34-1.78,2.37-13.92,4.44-15.7a25.49,25.49,0,0,0,3.56-3.8s-6.22-4.49-3-6.57,6.51-3.93,6.81-7.74"/><path class="cls-5" d="M1412.85,117.57s15.41.27,23.41-3.29,21.73-12.94,32-18.61,16-7.76,18.91-12.5,8.6-20.44,17.78-21.63,18.37-.59,20.44-12.74-.88-20.44,8.3-24.89,13-8.59,12.74-13.33S1558.33.47,1558.33.47"/><path class="cls-5" d="M1217,273.4a6.92,6.92,0,0,1,2,1.14c.4.27.83.6,1.29,1,5,3.89,13.38,11.87,14.52,13,1.48,1.48,5,14.22,5,14.22s5,8.3,6.14,8.59,12.23-2.37,14.23-2.37c.87,0,3.68,2.39,6.79,5.21,4.07,3.67,8.66,8,10.17,8.72,2.67,1.18,24.6,4.44,24.6,4.44l3.55-.89L1308,330a72.59,72.59,0,0,0,6.22-4.15c1.78-1.48,16.59,0,16.59,0s8.6-2.37,12.45-5,5-15.7,5-15.7,19.56-19.85,18.67-19.85,5-7.11,10.67-14,33.18-22.12,35.85-25.38,5.33,0,8.75,0,7.55,4.15,7.55,4.15l12.74-2.37s21.33-18.67,25.77-23.41,0-6.52,9.19-13.33,9.48-18.67,9.48-18.67,10.67-4.74,15.41-8.3,5-5,12.44-7.4,11-3.85,11-3.85,2.66-3.26,10.07-4.15a16.93,16.93,0,0,0,11.26-6.52s10.37-21.33,16.89-29.33,9.48-15.41,12.74-23.12,7.41-9.48,7.41-9.48,4.44-5.92,6.22-11.85a42.76,42.76,0,0,0,1.48-12.44s.89-5.34,3.26-7.11.89-5.93,1.48-7.41,8.59-3.56,8.59-3.56l4.45,1.33,3.26-3.7s0,4.15,3.55,0c2.6-3,4.72-4.32,9.71-6.64"/><path class="cls-5" d="M1201.15,273.84c.44.59,3.55,5.48,3.55,5.48l7.26-.59"/><path class="cls-5" d="M1210.19,276.58s9.33-2.44,10.07-2.15"/><line class="cls-5" x1="1220.26" y1="271.1" x2="1220.26" y2="281.69"/><line class="cls-5" x1="1238.63" y1="284.06" x2="1230.58" y2="284.52"/><path class="cls-5" d="M1286.63,271.91l-1.33,1.93s-8.45-.59-9.93-1-9.15-11.63-9.15-11.63l-6.11-3.41s-38.37-13-39.85-13.63l2.07-4-2.81,4.15-7.56,2.52-10.81,9.33-9.19,3.85,1.63,1.19,5.93-2.22-1.1-4.45h2.34l1.72,5.33"/><path class="cls-5" d="M1183.07,208.85s-1.63,5.29-1,8.55.45,23.55.45,23.55l3.4,2.82H1192l4.6-6.08"/><polyline class="cls-5" points="1178.48 249.99 1178.48 252.66 1181.91 254.58"/><polyline class="cls-5" points="1182.49 240.95 1182.49 246.43 1185.15 252.28"/><polyline class="cls-5" points="1191.96 252.28 1191.22 248.66 1192.73 242.75"/><path class="cls-5" d="M1182.49,245.8l8.73,2.86,5.34.37.66,2.33s11.78-10.22,14.11-13.45,5.7-10.44,6.74-11.33,26.6-11.16,26.6-11.16"/><polygon class="cls-5" points="1194.33 256.03 1197.22 251.36 1198.41 254.58 1194.33 256.03"/><path class="cls-5" d="M1267,314.16l5.24-1.8,7.22-7.28,2.34-5.33h4.94l4.5-1.89a33,33,0,0,1,2.5,5.05,19.35,19.35,0,0,0,1.89,3.89"/><path class="cls-5" d="M1330.78,325.84l4.44,12.74L1333,357.91l10.67,34-4.89,11.34s-5.78,2.27-5.78,7.13-.44,21.09-.44,21.09-1.56,5.07,2,5.2,10,.53,10.88,0a10.17,10.17,0,0,1,6.89-.67c3.11.8,8.89,8.36,8.89,8.36a33.4,33.4,0,0,0,9.11,3.92c4.89,1.19,4.23.15,6.45,0a63.17,63.17,0,0,1,7.73.57"/><path class="cls-5" d="M1335.22,338.58l11.34,5.11.88,2.6,5.12-2.38,3.11,2.38,4.12,2.29,2.77,1.56h3.55l2.79,2h3.88l4.22,1.33,1.11,2.22,4.89-1.11h4.67l2.89,5.33s1.51,2.48,4,1.91,5.19-.95,5.19-.95"/><path class="cls-5" d="M1528.92,433.15s-11.14-7.38-15.53-12.81-8-20.87-8-20.87l-3.79-15.11s-6.87-11.11-12.65-10.67-18.66-.61-18.66-.61"/></g><g id="Villes"><text class="cls-6" transform="translate(1235.7 215.42)">Miary</text><text class="cls-6" transform="translate(1134.05 207.36)">Belalanda</text><text class="cls-7" transform="translate(1169.67 271.1)"><tspan class="cls-8">T</tspan><tspan x="8.96" y="0">oliaria</tspan></text><text class="cls-6" transform="translate(1359.79 150.15)">Behompy</text><text class="cls-6" transform="translate(1440.23 104.33)">Ampanihy</text><text class="cls-6" transform="translate(1108.35 14.78)">Mangily</text><text class="cls-6" transform="translate(1471.87 473.05)">Manorofify</text><text class="cls-9" transform="translate(1472.55 418.18)">T<tspan class="cls-10" x="6" y="0">anandava</tspan></text><text class="cls-6" transform="translate(1369.13 370.72)">Ambohimahavelona </text><text class="cls-7" transform="translate(1144.26 615.05)">Anakao</text><text class="cls-6" transform="translate(1161.94 747.32)">Andranotohoka</text><text class="cls-6" transform="translate(1161.71 810.85)">Befaso</text><text class="cls-6" transform="translate(1169.67 902)">Beheloka</text><text class="cls-7" transform="translate(1263.9 477.63)">St Augustin</text></g></g></svg>