<svg xmlns="http://www.w3.org/2000/svg" xmlns:xlink="http://www.w3.org/1999/xlink" viewBox="0 0 529.37 948.34"><defs><style>.cls-1,.cls-6{fill:none;}.cls-2{clip-path:url(#clip-path);}.cls-3{fill:#ffefe1;}.cls-4{fill:#faf4ed;}.cls-5{fill:#fdfedb;}.cls-6{stroke:#fcc48b;stroke-miterlimit:10;stroke-width:0.75px;}.cls-10,.cls-7{font-size:12px;}.cls-10,.cls-7,.cls-8{fill:#353535;font-family:LobsterTwo, Lobster Two;}.cls-8{font-size:18px;}.cls-9{letter-spacing:-0.17em;}.cls-10{letter-spacing:-0.17em;}.cls-11{letter-spacing:0em;}</style><clipPath id="clip-path" transform="translate(-1096.45 0.34)"><rect class="cls-1" width="1625.7" height="948"/></clipPath></defs><g id="Calque_2" data-name="Calque 2"><g id="Villes"><g class="cls-2"><path class="cls-3" d="M1625.7,0V466.09c-14.65,1.6-18.61-12.31-16.6-21.53,2.22-10.23-18.45-34.89-20.23-32s-32,4.66-35.33,4.66-8.89,6.89-26.22,13.11a35.25,35.25,0,0,1-10.32,2.34c-7.9.33-9.52-4.5-13-6.34-4.66-2.44-4.66-6.89-11.11-15.33-3.48-4.56-3.46-6.4-3.12-7,.65-.26.24-.45,0,0l-.43.13c-2.67.67-2.67-1.78-8.22-12.67s-3.56-8.22-11.78-14.88a17.36,17.36,0,0,0-8.94-3.8h-.12a14.65,14.65,0,0,0-1.83-.14,20.11,20.11,0,0,0-7.11,1.06s-23.11-1.34-31.11.22-10.67,2.44-19.78,1.33-7.56-.44-12.22-2.89-8.67.45-14.67,1.78-9.78,15.78-10,21.33,2.83,9.67,2.33,11.34a62.09,62.09,0,0,0-1.22,11.78c.17,2.5,2.56,13.94,5.67,17s2.44,7.38,2.33,10.83-.11,11-.11,11-6.78-.45-7.22,3.67-1.89,4.05-3,5.5-9.22,5.61-9.83,7.16-6.22,1.61-5.44,7.56-2.23,4.89-4.34,5.11-3.66-1.78-4.94-2.67-3.28,1-6.22,1.61-3.23-.83-3.23-.83c-.22,2.33-1,5.17-5.89,8.67s-3.61-4.73-7.38,2.39-12.78,9.22-12.78,9.22c-17.89,2.11-16.45-1.11-16.67-6.11s-.22-5.23-3.44-5.67-9.89-.33-11.56-4.67-4.78-4.11-7.67-6.33-1.88-9.78-1.88-9.78c-21.78-24.22-11.56-38.78-11.56-38.78s2.11,13.89,4.67,20.67,7.66,7.56,7.66,7.56c-.66-7.34,4.78-6.56,4.78-6.56s-2.44-.78-.22-4.55,3.44-7.78,6.22-11.89-.15-14.63,5.78-21.45-3.56-11,1.18-23.55,1.19-12.6,1.19-12.6c-3.56-23.26-31.7-36.59-34.67-37.92s-5.48-1.93-11.85-15.11-9.18-4-9-9.93-4.59-12-4.59-12c-6.22,3.26-3.41-7.11-8.89-.15s-4.89,1.34-7.41-1-.59-5.49-1.77-5.49-1.63-1.63-2.37-4.14-10.23-8.6-12.3-10.67-5-4-3.26-5.63-.44-2.67-.89-3.56-3-4.74-2.52-3.4-3.7,1.63-3.7,1.63,4.3-2.08-2.67-.26-.66-6.52-4.77-2-7.67-.44-7.78,1-.11.56-3.78,1a12.35,12.35,0,0,1-9.78-2.77c-2.78-2.34-2.22-7.56-5.33-10.34s-1.89-6.55-2.78-7.77-2.44-5.45-1.89-10.23-2.11-7.77-3-10-8.22-9.55-8.22-9.55,1.78-4.11-.44-5.56c-1.52-1-1.23-3-.89-4.18,0-.13.07-.24.11-.34a2.56,2.56,0,0,1,.09-.26c0-.13.08-.22.1-.27s0,0,0,.06a.15.15,0,0,0,0,.07c0,.37.19,1,3.49-1.3,4.23-2.89,11.12,1,16.67.33s4.56,0,10.33,1.45,12.56-4,12.56-4,7.44-6.89,9-7.67,6.78-.44,6.78-.44,4.33-5.67,13.66-6.78,17.78,7.22,19.34,8.22,11.78-1.22,21.44-1.22,4.42-8.45,9-2.67,11.24,6.11,14.24,2.45,8.78-4.11,8.78-4.11,1.78-5.56,9.89-7,6.56-2.12,11.78-3.89,26.22,7.44,33.67,7.66,15.33-3.66,25.88-7.66,7.89-12.56,7.89-12.56-2.44-3.67-1.22-16.33,12-15,12-15,6.52-2.37,9.63-5,4.3-8.89,10.37-13.34,10.67-5.48,10.67-5.48l-1.33-.86-1.19-.77-6.07,4.3s-8.74,2.81-11.11,9-7.71,10.37-12.3,11.4-9.33,8.74-9.33,8.74l-3.85,6.67s-2.23,4.45-.45,7.56,1.93,11.85-1.48,17.18-14.52,5.48-14.52,5.48l3.4-6.94c-.26.4-4.39,6.86-7.55,8.72s-14.22,3.71-24.44-2.07-19.56-5.93-20.45-5.63-2.07,3.55-5,5.33-5.63-2.07-12.15,1.48-8.45,7.85-9.56,5.41-13.55-3.78-16.44-2-7.56,1.78-8.45,1.78-4.22-5.78-8.66-.45-9.78,7.11-11.11,6.23-11.56-6.67-21.34-7.12-19.33,6.89-23.55,7.78-9.78,9.11-13.34,10.67-4.44-.22-9.33-1.56-24.22,0-24.22,0-1.56-16.66-2.22-26.22-8-30.89-8-30.89,1.33-17.33,6-26.22,4,.67,2.89,3.33-.67,8.45-.67,8.45l-1.11,6,5.52-2.89-3.08,4.67,3.08,4.66v12.45s2-3.56,1.59,2.22,4.44,14.22,4.44,14.22l3.11-2,4.23,6,.89-5.55,1.11,6,2.44,2c3.56-6.67-1.33-20.89-3.55-23.34a26.32,26.32,0,0,1-3.78-5.78l-3.34-4.88s-2.66,5.33-2.44,2.66-2.67-12.89-2.67-12.89-.66-10.66-2.89-13.33,1.34-29.33,1.34-29.33-2.22-6.23-3.78-21.56-8-21.55-11.33-28.67,2.66-4.44,4.66-8.66,1.34-11.34-3.33-18.67S1111.76,0,1111.76,0Z" transform="translate(-1096.45 0.34)"/><path class="cls-3" d="M1625.7,476.86V948H1173.54s4.67-14.78.89-30.33-2-19.78,5.33-22.89,8.89,5.33,2-34.22-7.33-19.34-17.33-38.89,10.89-12.89,10.22-29.34-12-24-12-24a30.46,30.46,0,0,0-6.89-19.77c0-24.23-8.66-16.23-8-23.34.65-6.9-5-11.28-5.31-11.54l3.76.88.44-2.67,4.89.22,2.22,1.11-2.22,4.67,1.33-1.78,1.11,3.78,1.12-1.78,2.88-2,3.56,2L1160,713l-4.44,2s9.78-13.78.22-23.78-4-8.22,1.34-20.44-7.56-20.22-7.56-20.22,15.33-12.23,8.89-23.34-14.22-3.11-14.22-3.11,3.77-11.78,12.22-18.67,5.55-21.55,7.55-35.55,5.34-16.45,37.56-29.11,38.67-.22,40.44-5.78,6.67-8.89,11.34-11.33a10.55,10.55,0,0,1,8.44-.89s-.22-10.89,9.11-13.34,6.45,8.45,19.34,6.23,6.66-4.67,20.66-4.89,23.56-9.78,23.56-9.78c6.44-12.67,13.78-12.22,15.33-15.33s2.78-11.95,15.56-17.56,11.33-13.78,11.33-13.78l5.56,1.56s.66-29.56,1.11-34.22,0-28.67,2.22-34.67,8.44-9.33,12.67-6.89,9.77,4.45,23.11,5.11a122.12,122.12,0,0,1,23.78,3.56l-3.12-2.22c16.67-10.45,14.45-2.67,24.45.66s12.22,19.56,12.22,19.56a25.41,25.41,0,0,1-2.89,8.66c-2.44,4.45-.22,16.67-.22,16.67L1470,431l-1.33,2,2.22,3.56,3.78-.67s2.22,8.22,4.45,15.11,11.11,7.56,15.11,8.67,7.77,5.11,8.66,2,8.89-3.11,8.89-3.11c-.22-3.34,3.11-12.67,6-12.23s.22,3.56,20.22-3.33-7.11,4.89,8.67-1.11-.19-20.94,37.33-10.67,1.34,42.67,32.23,45.34A74.31,74.31,0,0,0,1625.7,476.86Z" transform="translate(-1096.45 0.34)"/><path class="cls-4" d="M1132.88,685.56s-2.67-1.89,0-1.56,4.22.22,5.66-.89,5.12-1.22,4.78,0-3.89,3.22-3.44,5.22,3.46,5.34,3.46,5.34a10.52,10.52,0,0,1-5.35-3.78A14.84,14.84,0,0,0,1132.88,685.56Z" transform="translate(-1096.45 0.34)"/><path class="cls-5" d="M1489.75,404c.24-.45.65-.26,0,0Z" transform="translate(-1096.45 0.34)"/><polygon class="cls-5" points="231.54 503.34 234.48 501.62 233.26 503.68 231.54 503.34"/><path class="cls-5" d="M1230.73,197.22s2.59-4,5.41-3,0,2,0,2-.15,1,.15,1-1.26.89-1.63.89H1231Z" transform="translate(-1096.45 0.34)"/><polygon class="cls-5" points="143.09 196.42 140.94 198.01 143.09 198.01 145.84 196.42 143.09 196.42"/><polygon class="cls-5" points="153.02 194.38 156.87 192.23 162.72 195.12 153.02 194.38"/><polygon class="cls-5" points="161.21 192.68 164.28 194.79 164.95 194.38 161.21 192.68"/><path class="cls-5" d="M1256.66,196.87l6-.8s-2,3.49-3.41,3.15S1256.66,196.87,1256.66,196.87Z" transform="translate(-1096.45 0.34)"/><polygon class="cls-5" points="156.84 197.53 159.09 197.21 158.21 198.79 156.84 197.53"/><polygon class="cls-5" points="158.21 200.49 161.21 199.75 159.09 201.6 158.21 200.49"/><polygon class="cls-5" points="161.21 201.82 163.61 199.75 165.28 200.79 163.24 202.12 161.21 201.82"/><path class="cls-5" d="M1315.16,501.22c-.39.09,2.22-5.28,4.83-5.55a24.22,24.22,0,0,0,5.5-1.45,43.34,43.34,0,0,0,3-4.83c.17-.72,1.62-1.95,3.45-2.06s2.39-2,3.67-1.5,1,2.34,2.55,2.17,5-1.06,2,1.61-5.73,5.45-6.62,7.72-.94,2.23-3.72,2.67-3.33,2.94-5,3S1319.16,500.28,1315.16,501.22Z" transform="translate(-1096.45 0.34)"/><path class="cls-5" d="M1297.21,510.17a12.92,12.92,0,0,1,3.11-1.45c.84-.05,1.5,1.67-.22,2.17A3,3,0,0,1,1297.21,510.17Z" transform="translate(-1096.45 0.34)"/><path class="cls-5" d="M1272.16,492.39c-.06.17.22,8.5.22,8.5s1.22-5.67.89-7.17S1272.16,492.39,1272.16,492.39Z" transform="translate(-1096.45 0.34)"/><polygon class="cls-5" points="163.48 484.9 161.09 491.45 165.04 485.79 163.48 484.9"/><polygon class="cls-5" points="36.5 684.08 35.91 682.16 40.06 684.08 44.95 681.12 47.61 682.6 43.47 686.45 45.84 691.34 42.73 691.34 39.17 686.23 36.5 684.08"/><path class="cls-5" d="M1114.73,602.85s-7-5.63-7.26-11,5.78,1.48,7.41,5A5.93,5.93,0,0,1,1114.73,602.85Z" transform="translate(-1096.45 0.34)"/><path class="cls-5" d="M1104.51,586.85s-2.82-3.41.15-2.81S1104.51,586.85,1104.51,586.85Z" transform="translate(-1096.45 0.34)"/><path class="cls-5" d="M1489.75,404c.24-.45.65-.26,0,0Z" transform="translate(-1096.45 0.34)"/><path class="cls-6" d="M1127.44,75.22s4.33-6.29,4.92-9S1127,56.19,1129,50.56s.7-19.71.91-24S1123.17,0,1123.17,0" transform="translate(-1096.45 0.34)"/><path class="cls-6" d="M1145.1,161.22a31.59,31.59,0,0,0-4.59-11.54c-3.56-5.05-3-11.1-5.63-13.05s-3.32-5.69-3.32-5.69" transform="translate(-1096.45 0.34)"/><path class="cls-6" d="M1148.65,184.56s-4.88,6.73-1.62,9.48,8.57,3.31,16.58,4.8" transform="translate(-1096.45 0.34)"/><path class="cls-6" d="M1188.47,193.39a24.84,24.84,0,0,1,.39-5.34c.53-2.79,1.72-5.79,4.39-6.68a108,108,0,0,0,11.81-5" transform="translate(-1096.45 0.34)"/><path class="cls-6" d="M1205.06,182.26s-.85-1.78-6.48,1.48a43,43,0,0,1-9.72,4.31" transform="translate(-1096.45 0.34)"/><path class="cls-6" d="M1370.28,141.07s-.14-5.63-1.92-6.81-8.3-.41-6.52-3.32a8.13,8.13,0,0,0,1.19-5.57,5.78,5.78,0,0,1-1.49-2.67c-.29-1.48,2.08-4.74,2.08-4.74s-3-3.55-.3-4.44,8.59-2.67,8.59-4.15a34.62,34.62,0,0,1,0-5.51,12.05,12.05,0,0,0,0-3.67s3.56-2.67,2.08-4.15.72-3.85.36-5.93-4.51-3-5.1-3.85,4.06-4.15,5.14-3.85-4.55-3.26-1.59-5.93,5-6.52,6.23-8.29-.6-12.15,0-13.34a42.83,42.83,0,0,1,8.29-10.37c5-4.74-1.78-8.89-1.78-8.89s3.86.89,5.34-1.78,2.37-13.92,4.44-15.7a25.49,25.49,0,0,0,3.56-3.8s-6.22-4.49-3-6.57,6.52-3.93,6.82-7.74" transform="translate(-1096.45 0.34)"/><path class="cls-6" d="M1401,117.1s15.41.27,23.41-3.29,21.73-12.94,32.05-18.62,15.95-7.75,18.91-12.49,8.59-20.44,17.78-21.63,18.37-.59,20.44-12.74-.88-20.44,8.3-24.89,13-8.59,12.74-13.33S1546.43,0,1546.43,0" transform="translate(-1096.45 0.34)"/><path class="cls-6" d="M1625.7,43.24a44.16,44.16,0,0,0-4.6,1.83c-10.37,4.74-13,5.63-16.6,9.78s-3.55,0-3.55,0l-3.26,3.7-4.45-1.33s-8,2.08-8.59,3.56.89,5.63-1.48,7.41-3.26,7.11-3.26,7.11a42.76,42.76,0,0,1-1.48,12.44c-1.78,5.93-6.22,11.85-6.22,11.85s-4.15,1.78-7.41,9.48-6.22,15.12-12.74,23.12-16.89,29.33-16.89,29.33a16.93,16.93,0,0,1-11.26,6.52c-7.41.89-10.07,4.15-10.07,4.15s-3.56,1.48-11,3.85-7.7,3.85-12.44,7.4-15.41,8.3-15.41,8.3-.29,11.85-9.48,18.67-4.74,8.59-9.19,13.33-25.77,23.41-25.77,23.41l-12.74,2.37s-4.14-4.15-7.55-4.15-6.08-3.26-8.75,0-30.22,18.46-35.85,25.38-11.56,14-10.67,14-18.67,19.85-18.67,19.85-1.18,13-5,15.7-12.45,5-12.45,5-14.81-1.48-16.59,0a72.59,72.59,0,0,1-6.22,4.15l-2.67-3.56-3.55.89s-21.93-3.26-24.6-4.44-15-13.93-17-13.93-13.12,2.67-14.23,2.37-6.14-8.59-6.14-8.59-3.56-12.74-5-14.22-15.19-14.52-17.82-15.11" transform="translate(-1096.45 0.34)"/><path class="cls-6" d="M1189.25,273.37c.44.59,3.55,5.48,3.55,5.48l7.26-.59" transform="translate(-1096.45 0.34)"/><path class="cls-6" d="M1198.29,276.11s9.33-2.44,10.07-2.15" transform="translate(-1096.45 0.34)"/><line class="cls-6" x1="111.91" y1="270.97" x2="111.91" y2="281.57"/><line class="cls-6" x1="130.28" y1="283.94" x2="122.23" y2="284.4"/><path class="cls-6" d="M1274.73,271.44l-1.33,1.93s-8.45-.59-9.93-1-9.15-11.63-9.15-11.63l-6.11-3.41s-38.37-13-39.85-13.63l2.07-4-2.81,4.15-7.56,2.52-10.81,9.33-9.19,3.85,1.63,1.19,5.93-2.22-1.11-4.45h2.35l1.72,5.33" transform="translate(-1096.45 0.34)"/><path class="cls-6" d="M1171.17,208.38s-1.63,5.29-1,8.55.45,23.55.45,23.55l3.4,2.82h6.07l4.6-6.08" transform="translate(-1096.45 0.34)"/><polyline class="cls-6" points="70.13 249.86 70.13 252.53 73.56 254.45"/><polyline class="cls-6" points="74.14 240.82 74.14 246.31 76.8 252.16"/><polyline class="cls-6" points="83.61 252.16 82.87 248.53 84.38 242.62"/><path class="cls-6" d="M1170.59,245.33l8.73,2.86,5.34.37.66,2.33s11.78-10.22,14.11-13.45,5.7-10.44,6.74-11.33,26.6-11.16,26.6-11.16" transform="translate(-1096.45 0.34)"/><polygon class="cls-6" points="85.98 255.9 88.87 251.23 90.07 254.45 85.98 255.9"/><path class="cls-6" d="M1255.08,313.69l5.24-1.8,7.22-7.28,2.34-5.33h4.94l4.5-1.89a33,33,0,0,1,2.5,5.05,19.35,19.35,0,0,0,1.89,3.89" transform="translate(-1096.45 0.34)"/><path class="cls-6" d="M1318.88,325.37l4.44,12.74-2.22,19.33,10.67,34-4.89,11.34s-5.78,2.27-5.78,7.13-.44,21.09-.44,21.09-1.56,5.07,2,5.2,10,.53,10.88,0a10.17,10.17,0,0,1,6.89-.67c3.11.8,8.89,8.36,8.89,8.36a33.4,33.4,0,0,0,9.11,3.92c4.89,1.19,4.23.15,6.45,0a63.17,63.17,0,0,1,7.73.57" transform="translate(-1096.45 0.34)"/><path class="cls-6" d="M1323.32,338.11l11.34,5.11.88,2.59,5.12-2.37,3.11,2.37,4.12,2.3,2.77,1.56h3.55l2.79,2h3.88l4.22,1.33,1.11,2.22,4.89-1.11h4.67l2.89,5.33s1.51,2.48,4,1.91,5.19-1,5.19-1" transform="translate(-1096.45 0.34)"/><path class="cls-6" d="M1517,432.68s-11.14-7.38-15.53-12.81-8-20.87-8-20.87l-3.79-15.11s-6.87-11.11-12.65-10.67-18.66-.61-18.66-.61" transform="translate(-1096.45 0.34)"/><text class="cls-7" transform="translate(127.35 215.29)">Miary</text><text class="cls-7" transform="translate(25.7 207.23)">Belalanda</text><text class="cls-8" transform="translate(61.32 270.97)"><tspan class="cls-9">T</tspan><tspan x="8.96" y="0">oliaria</tspan></text><text class="cls-7" transform="translate(251.44 150.03)">Behompy</text><text class="cls-7" transform="translate(331.88 104.2)">Ampanihy</text><text class="cls-7" transform="translate(0 14.65)">Mangily</text><text class="cls-7" transform="translate(363.52 472.92)">Manorofify</text><text class="cls-10" transform="translate(364.2 418.05)">T<tspan class="cls-11" x="6" y="0">anandava</tspan></text><text class="cls-7" transform="translate(260.78 370.6)">Ambohimahavelona </text><text class="cls-8" transform="translate(35.91 614.93)">Anakao</text><text class="cls-7" transform="translate(53.59 747.2)">Andranotohoka</text><text class="cls-7" transform="translate(53.36 810.72)">Befaso</text><text class="cls-7" transform="translate(61.32 901.87)">Beheloka</text><text class="cls-8" transform="translate(155.55 477.51)">St Augustin</text></g></g></g></svg>